<svg width="149" height="148" viewBox="0 0 149 148" fill="none" xmlns="http://www.w3.org/2000/svg">
<g clip-path="url(#clip0_60_249)">
<path d="M74.5 148C115.369 148 148.5 114.869 148.5 74C148.5 33.1309 115.369 0 74.5 0C33.6309 0 0.5 33.1309 0.5 74C0.5 114.869 33.6309 148 74.5 148Z" fill="white"/>
<path d="M74.5 147.5C115.093 147.5 148 114.593 148 74C148 33.4071 115.093 0.5 74.5 0.5C33.9071 0.5 1 33.4071 1 74C1 114.593 33.9071 147.5 74.5 147.5Z" stroke="#D9D9D9"/>
<mask id="mask0_60_249" style="mask-type:luminance" maskUnits="userSpaceOnUse" x="29" y="28" width="91" height="92">
<path d="M119.969 28.792H29.5V119.261H119.969V28.792Z" fill="white"/>
</mask>
<g mask="url(#mask0_60_249)">
<path d="M47.4479 103.33L45.4299 105.345C47.4605 107.247 49.6708 108.948 52.0299 110.424L53.4559 107.954C51.3124 106.605 49.3008 105.057 47.4479 103.33Z" fill="#B9E0D7"/>
<path d="M55.926 109.383L54.5 111.853C56.9554 113.17 59.5345 114.242 62.2 115.053L62.939 112.296C60.5152 111.551 58.1685 110.575 55.931 109.382" fill="#B9E0D7"/>
<path d="M36.464 85.8259L33.7 86.5559C34.5112 89.2214 35.583 91.8006 36.9 94.2559L39.37 92.8299C38.1798 90.5947 37.2064 88.2507 36.463 85.8299" fill="#B9E0D7"/>
<path d="M40.8059 95.3019L38.3359 96.7279C39.8115 99.087 41.5125 101.297 43.4149 103.328L45.4299 101.31C43.703 99.4561 42.1548 97.4436 40.8059 95.299" fill="#B9E0D7"/>
<path d="M65.6889 113.036L64.95 115.793C67.6623 116.423 70.4299 116.785 73.213 116.875V114.022C70.6793 113.934 68.1598 113.605 65.6889 113.037" fill="#B9E0D7"/>
<path d="M103.848 101.313L105.863 103.331C107.766 101.3 109.466 99.09 110.942 96.731L108.472 95.3049C107.123 97.4485 105.575 99.4601 103.848 101.313Z" fill="#B9E0D7"/>
<path d="M34.739 75.548H31.886C31.9757 78.331 32.3381 81.0986 32.968 83.811L35.725 83.072C35.1574 80.6011 34.8266 78.0817 34.739 75.548Z" fill="#B9E0D7"/>
<path d="M76.0659 114.021V116.874C78.849 116.784 81.6166 116.422 84.3289 115.792L83.5899 113.035C81.1191 113.603 78.5996 113.932 76.0659 114.02" fill="#B9E0D7"/>
<path d="M113.554 83.0679L116.311 83.8069C116.941 81.0946 117.303 78.327 117.393 75.5439H114.54C114.452 78.0776 114.123 80.5971 113.555 83.0679" fill="#B9E0D7"/>
<path d="M113.554 65.171C114.122 67.6418 114.451 70.1613 114.539 72.695H117.392C117.302 69.9119 116.94 67.1444 116.31 64.432L113.554 65.171Z" fill="#B9E0D7"/>
<path d="M86.344 112.297L87.083 115.054C89.7485 114.243 92.3276 113.171 94.783 111.854L93.354 109.383C91.1165 110.576 88.7697 111.552 86.346 112.297" fill="#B9E0D7"/>
<path d="M95.8199 107.954L97.2459 110.424C99.605 108.948 101.815 107.247 103.846 105.345L101.831 103.33C99.9771 105.057 97.9646 106.605 95.8199 107.954Z" fill="#B9E0D7"/>
<path d="M101.831 44.913L103.849 42.898C101.818 40.9955 99.6081 39.2945 97.249 37.819L95.823 40.289C97.9676 41.6379 99.9802 43.186 101.834 44.913" fill="#B9E0D7"/>
<path d="M93.3539 38.859L94.78 36.389C92.3246 35.0721 89.7455 34.0002 87.08 33.189L86.3409 35.946C88.7664 36.6905 91.1148 37.666 93.3539 38.859Z" fill="#B9E0D7"/>
<path d="M35.724 65.171L32.967 64.432C32.3372 67.1444 31.9748 69.9119 31.885 72.695H34.738C34.8256 70.1613 35.1564 67.6418 35.724 65.171Z" fill="#B9E0D7"/>
<path d="M83.586 35.2059L84.325 32.4489C81.6127 31.8191 78.8451 31.4567 76.062 31.3669V34.2199C78.5957 34.3075 81.1152 34.6383 83.586 35.2059Z" fill="#B9E0D7"/>
<path d="M108.472 52.9399L110.942 51.5139C109.466 49.1549 107.766 46.9445 105.863 44.9139L103.848 46.9299C105.575 48.7837 107.123 50.7953 108.472 52.9399Z" fill="#B9E0D7"/>
<path d="M112.815 62.4169L115.579 61.6869C114.768 59.0214 113.696 56.4423 112.379 53.9869L109.909 55.4129C111.099 57.6482 112.073 59.9922 112.816 62.4129" fill="#B9E0D7"/>
<path d="M39.3779 55.4079L36.9079 53.9819C35.5886 56.437 34.5144 59.0161 33.7009 61.6819L36.4579 62.4209C37.2048 59.9938 38.1829 57.6441 39.3789 55.4039" fill="#B9E0D7"/>
<path d="M45.4309 46.93L43.4149 44.912C41.5125 46.9426 39.8115 49.1529 38.3359 51.512L40.8059 52.938C42.1548 50.7934 43.703 48.7808 45.4299 46.927" fill="#B9E0D7"/>
<path d="M62.934 35.946L62.195 33.189C59.5295 34.0002 56.9504 35.0721 54.495 36.389L55.921 38.859C58.1585 37.6659 60.5052 36.6901 62.929 35.945" fill="#B9E0D7"/>
<path d="M73.213 34.221V31.368C70.4299 31.4578 67.6623 31.8202 64.95 32.45L65.6889 35.207C68.1598 34.6395 70.6793 34.3086 73.213 34.221Z" fill="#B9E0D7"/>
<path d="M53.4579 40.288L52.0299 37.818C49.6709 39.2936 47.4606 40.9946 45.4299 42.897L47.4479 44.912C49.3017 43.1851 51.3133 41.6369 53.4579 40.288Z" fill="#B9E0D7"/>
<path d="M109.901 92.834L112.371 94.26C113.69 91.805 114.765 89.2258 115.578 86.56L112.821 85.821C112.074 88.2481 111.096 90.5979 109.9 92.838" fill="#B9E0D7"/>
<path d="M109.038 72.6949C108.955 70.6417 108.688 68.6001 108.238 66.5949C108.029 65.6563 107.783 64.7383 107.501 63.8409C106.885 61.883 106.094 59.9844 105.138 58.1679C104.694 57.3253 104.218 56.5026 103.709 55.6999C102.604 53.9678 101.348 52.3371 99.955 50.8269C99.3103 50.1276 98.6376 49.4549 97.937 48.8089C96.4268 47.416 94.7961 46.1598 93.064 45.0549C92.264 44.5449 91.4413 44.0686 90.596 43.6259C88.7766 42.6695 86.875 41.8787 84.914 41.2629C84.0133 40.9796 83.0953 40.7339 82.16 40.5259C80.1549 40.0762 78.1133 39.8085 76.06 39.7259C75.591 39.7069 75.122 39.6949 74.634 39.6949C74.146 39.6949 73.681 39.7069 73.208 39.7259C71.1547 39.8085 69.1131 40.0762 67.108 40.5259C66.1693 40.7353 65.2513 40.9809 64.354 41.2629C62.3943 41.8792 60.494 42.6704 58.676 43.6269C57.8346 44.0696 57.012 44.5459 56.208 45.0559C54.4759 46.1608 52.8451 47.417 51.335 48.8099C50.6357 49.4559 49.963 50.1286 49.317 50.8279C47.924 52.3381 46.6678 53.9688 45.563 55.7009C45.0543 56.5009 44.578 57.3236 44.134 58.1689C43.1796 59.9865 42.3905 61.8862 41.776 63.8449C41.4926 64.7456 41.247 65.6636 41.039 66.5989C40.5893 68.6041 40.3215 70.6457 40.239 72.6989C40.22 73.1679 40.209 73.6369 40.209 74.1249C40.209 74.6129 40.221 75.0779 40.239 75.5509C40.3215 77.6042 40.5893 79.6458 41.039 81.6509C41.247 82.5896 41.4926 83.5076 41.776 84.4049C42.3937 86.3613 43.1859 88.2583 44.143 90.0729C44.5856 90.9143 45.062 91.7369 45.572 92.5409C46.6768 94.2731 47.933 95.9038 49.326 97.4139C49.972 98.1133 50.6446 98.7859 51.344 99.4319C52.8541 100.825 54.4849 102.081 56.217 103.186C57.017 103.695 57.8396 104.171 58.685 104.615C60.5043 105.571 62.406 106.362 64.367 106.978C65.2676 107.261 66.1856 107.507 67.121 107.715C69.1261 108.165 71.1677 108.432 73.221 108.515C73.69 108.534 74.159 108.546 74.647 108.546C75.135 108.546 75.6 108.534 76.073 108.515C78.1263 108.432 80.1679 108.165 82.173 107.715C83.1116 107.507 84.0296 107.261 84.927 106.978C86.8865 106.364 88.7868 105.574 90.605 104.62C91.4463 104.177 92.269 103.701 93.073 103.191C94.8051 102.086 96.4358 100.83 97.946 99.4369C98.6453 98.7923 99.318 98.1196 99.964 97.4189C101.357 95.9088 102.613 94.2781 103.718 92.5459C104.228 91.7459 104.704 90.9233 105.147 90.0779C106.103 88.2586 106.894 86.357 107.51 84.3959C107.793 83.4953 108.039 82.5773 108.247 81.6419C108.697 79.6368 108.964 77.5952 109.047 75.5419C109.066 75.0729 109.077 74.6039 109.077 74.1159C109.077 73.6279 109.061 73.1679 109.042 72.6939M106.016 75.5469H103.163V74.3349L98.311 75.5479L91.665 77.2069L85.965 78.6329L85.496 78.7479L85.067 78.8559L88.098 83.5479L91.805 89.2839L95.493 94.9839L89.786 91.2969L84.052 87.5879L79.36 84.5589L79.252 84.9909L79.137 85.4599L77.711 91.1599L76.052 97.8019L74.839 102.654H76.052V105.507H73.213V102.642H74.426L73.213 97.7899L71.555 91.1469L70.129 85.4469L70.106 85.3469L69.637 85.6239L64.596 88.6509L58.402 92.3669L53.36 95.3909L56.384 90.3489L60.1 84.1549L63.124 79.1159L63.401 78.6469L63.301 78.6239L57.601 77.1979L50.959 75.5389L46.111 74.3269V75.5399H43.268V72.6949H46.121V73.9079L50.976 72.6949L57.618 71.0359L63.318 69.6099L63.787 69.4949L64.216 69.3869L61.176 64.6949L57.467 58.9589L53.781 53.2589L59.489 56.9489L65.223 60.6579L69.915 63.6869L70.023 63.2549L70.138 62.7859L71.564 57.0859L73.223 50.4439L74.436 45.5919H73.227V42.7489H76.076V45.6019H74.867L76.076 50.4539L77.735 57.0959L79.161 62.7959L79.184 62.8959L79.653 62.6189L84.692 59.5949L90.886 55.8789L95.928 52.8549L92.904 57.8969L89.193 64.0869L86.169 69.1269L85.892 69.5959L85.992 69.6189L91.692 71.0449L98.334 72.7039L103.186 73.9169V72.7039H106.039L106.016 75.5469Z" fill="#E7E5E3"/>
<path d="M71.404 67.555L72.213 67.069L73.213 66.469L73.337 66.396L73.537 66.276L73.729 66.161L73.95 66.03L75.599 65.04L76.068 64.758L78.806 63.113L78.991 63.003L79.115 62.928L79.176 62.893L79.153 62.793L77.727 57.093L76.068 50.451L74.855 45.599H74.428L73.215 50.451L71.556 57.093L70.13 62.793L70.015 63.255L69.907 63.687L65.22 60.662L59.486 56.953L53.78 53.262L57.466 58.962L61.175 64.698L64.206 69.386L63.777 69.494L63.315 69.609L57.615 71.035L50.973 72.694L46.121 73.907V74.334L50.973 75.547L57.615 77.206L63.315 78.632L63.415 78.655L63.45 78.594L63.525 78.47L63.635 78.285L65.28 75.547L65.562 75.078L66.552 73.429L66.681 73.213L66.798 73.013L66.918 72.813L66.991 72.689L67.591 71.689L68.077 70.88L68.57 70.059L69.058 69.245L69.328 68.799L69.774 68.529L70.588 68.041L71.404 67.555Z" fill="#A7A6A4"/>
<path d="M98.307 72.695L91.665 71.036L85.965 69.61L85.865 69.587L85.83 69.648L85.755 69.772L85.645 69.957L84 72.695L83.718 73.164L82.728 74.813L82.599 75.029L82.482 75.229L82.362 75.429L82.289 75.553L81.689 76.553L81.203 77.362L80.71 78.183L80.222 78.997L79.952 79.443L79.506 79.713L78.692 80.201L77.871 80.694L77.062 81.18L76.062 81.78L75.938 81.853L75.738 81.973L75.546 82.088L75.325 82.219L73.676 83.209L73.207 83.491L70.469 85.136L70.284 85.246L70.157 85.321L70.098 85.356L70.121 85.456L71.547 91.156L73.206 97.798L74.419 102.65H74.846L76.059 97.798L77.718 91.156L79.144 85.456L79.259 84.994L79.367 84.562L84.052 87.591L89.786 91.3L95.494 94.99L91.806 89.29L88.099 83.554L85.068 78.866L85.497 78.758L85.959 78.643L91.659 77.217L98.301 75.558L103.153 74.345V73.918L98.307 72.695Z" fill="#A7A6A4"/>
<path d="M111.684 72.6989C111.599 70.4147 111.302 68.1433 110.797 65.9139C110.586 64.9753 110.339 64.0573 110.058 63.1599C109.38 60.9764 108.5 58.8606 107.43 56.8399C106.984 55.9986 106.507 55.1759 105.999 54.3719C104.778 52.4408 103.383 50.6259 101.83 48.9499C101.185 48.2539 100.514 47.5823 99.8149 46.9349C98.1396 45.3805 96.3249 43.9833 94.3939 42.7609C93.5939 42.2509 92.7713 41.7739 91.9259 41.3299C89.9055 40.2575 87.7897 39.3754 85.6059 38.6949C84.7019 38.4136 83.7839 38.1673 82.8519 37.9559C80.6226 37.4508 78.3512 37.1539 76.0669 37.0689C75.5979 37.0499 75.1289 37.0389 74.6409 37.0389C74.1529 37.0389 73.6879 37.0509 73.2149 37.0689C70.9307 37.1539 68.6592 37.4508 66.4299 37.9559C65.4912 38.1673 64.5723 38.4136 63.6729 38.6949C61.4901 39.3735 59.375 40.2533 57.3549 41.3229C56.5123 41.7689 55.6896 42.2459 54.8869 42.7539C52.9558 43.9747 51.1408 45.3702 49.4649 46.9229C48.7689 47.5689 48.0972 48.2406 47.4499 48.9379C45.8972 50.6138 44.5017 52.4288 43.2809 54.3599C42.7723 55.1599 42.2953 55.9826 41.8499 56.8279C40.7798 58.8485 39.9 60.9643 39.2219 63.1479C38.9406 64.0519 38.6943 64.9699 38.4829 65.9019C37.9778 68.1313 37.6808 70.4027 37.5959 72.6869C37.5769 73.1559 37.5659 73.6249 37.5659 74.1129C37.5659 74.6009 37.5659 75.0659 37.5959 75.5389C37.6804 77.8256 37.9773 80.0993 38.4829 82.3309C38.6943 83.2696 38.9406 84.1876 39.2219 85.0849C39.9 87.2686 40.7798 89.3843 41.8499 91.4049C42.2959 92.2463 42.7729 93.0689 43.2809 93.8729C44.5008 95.8054 45.8957 97.6217 47.4479 99.2989C48.0939 99.9949 48.7656 100.667 49.4629 101.314C51.1389 102.867 52.9538 104.262 54.8849 105.483C55.6849 105.992 56.5076 106.469 57.3529 106.914C59.3728 107.986 61.4879 108.868 63.6709 109.549C64.5763 109.83 65.4953 110.077 66.4279 110.288C68.6572 110.793 70.9287 111.09 73.2129 111.175C73.6819 111.194 74.1509 111.205 74.6389 111.205C75.1269 111.205 75.5919 111.205 76.0649 111.175C78.3492 111.09 80.6206 110.793 82.8499 110.288C83.7886 110.077 84.7066 109.83 85.6039 109.549C87.7875 108.871 89.9033 107.991 91.9239 106.921C92.7666 106.475 93.5892 105.998 94.3919 105.49C96.323 104.269 98.138 102.874 99.8139 101.321C100.511 100.676 101.183 100.005 101.829 99.3059C103.382 97.63 104.777 95.8151 105.998 93.8839C106.508 93.0839 106.985 92.2613 107.429 91.4159C108.499 89.3953 109.379 87.2796 110.057 85.0959C110.338 84.1919 110.585 83.2739 110.796 82.3419C111.301 80.1126 111.598 77.8412 111.683 75.5569C111.702 75.0879 111.714 74.6189 111.714 74.1309C111.714 73.6429 111.702 73.1709 111.683 72.6979M108.237 81.6509C108.028 82.5896 107.782 83.5076 107.5 84.4049C106.884 86.3629 106.093 88.2615 105.137 90.0779C104.693 90.9193 104.217 91.7419 103.708 92.5459C102.603 94.2781 101.347 95.9088 99.9539 97.4189C99.3092 98.1183 98.6366 98.7909 97.9359 99.4369C96.4258 100.83 94.795 102.086 93.0629 103.191C92.2629 103.7 91.4403 104.176 90.5949 104.62C88.7756 105.576 86.8739 106.367 84.9129 106.983C84.0123 107.266 83.0943 107.512 82.1589 107.72C80.1538 108.17 78.1122 108.437 76.0589 108.52C75.5899 108.539 75.1209 108.55 74.6329 108.55C74.1449 108.55 73.6799 108.538 73.2069 108.52C71.1536 108.437 69.112 108.17 67.1069 107.72C66.1683 107.512 65.2502 107.266 64.3529 106.983C62.3934 106.369 60.4931 105.579 58.6749 104.625C57.8336 104.182 57.0109 103.706 56.2069 103.196C54.4748 102.091 52.8441 100.835 51.3339 99.4419C50.6346 98.7973 49.9619 98.1246 49.3159 97.4239C47.923 95.9138 46.6667 94.2831 45.5619 92.5509C45.0532 91.7509 44.5769 90.9283 44.1329 90.0829C43.1774 88.2629 42.3876 86.3605 41.7729 84.3989C41.4896 83.4983 41.2439 82.5803 41.0359 81.6449C40.5862 79.6398 40.3184 77.5982 40.2359 75.5449C40.2169 75.0759 40.2059 74.6069 40.2059 74.1189C40.2059 73.6309 40.2179 73.1659 40.2359 72.6929C40.3184 70.6397 40.5862 68.5981 41.0359 66.5929C41.2439 65.6543 41.4896 64.7363 41.7729 63.8389C42.3906 61.8825 43.1828 59.9856 44.1399 58.1709C44.5826 57.3229 45.0589 56.4989 45.5689 55.6989C46.6737 53.9668 47.93 52.3361 49.3229 50.8259C49.9689 50.1266 50.6416 49.4539 51.3409 48.8079C52.8511 47.415 54.4818 46.1588 56.2139 45.0539C57.0139 44.5439 57.8366 44.0676 58.6819 43.6249C60.5013 42.6685 62.4029 41.8777 64.3639 41.2619C65.2646 40.9786 66.1826 40.7329 67.1179 40.5249C69.123 40.0752 71.1646 39.8075 73.2179 39.7249C73.6869 39.7059 74.1559 39.6949 74.6439 39.6949C75.1319 39.6949 75.5969 39.7069 76.0699 39.7249C78.1232 39.8075 80.1648 40.0752 82.1699 40.5249C83.1086 40.7343 84.0266 40.9799 84.9239 41.2619C86.8834 41.8762 88.7837 42.6654 90.6019 43.6199C91.4433 44.0626 92.2659 44.5389 93.0699 45.0489C94.802 46.1537 96.4328 47.41 97.9429 48.8029C98.6423 49.4489 99.3149 50.1216 99.9609 50.8209C101.354 52.3311 102.61 53.9618 103.715 55.6939C104.225 56.4939 104.701 57.3166 105.144 58.1619C106.1 59.9813 106.891 61.8829 107.507 63.8439C107.79 64.7446 108.036 65.6626 108.244 66.5979C108.694 68.6031 108.961 70.6447 109.044 72.6979C109.063 73.1669 109.074 73.6359 109.074 74.1239C109.074 74.6119 109.074 75.0769 109.044 75.5499C108.959 77.6027 108.689 79.6437 108.238 81.6479L108.237 81.6509Z" fill="white"/>
<path d="M76.066 75.548L75.803 75.285L75.683 75.165L75.648 75.13L73.63 73.112L73.595 73.077L73.475 72.957L73.212 72.694L72.623 72.105L71.404 70.884L71.261 71.119L70.94 71.654L70.647 72.144L70.316 72.695L70.06 73.122L69.523 74.022L69.415 74.2L68.84 75.16L68.73 75.343L68.622 75.521L68.606 75.552L68.226 76.183L67.414 77.539L66.527 79.015L66.417 79.2L66.307 79.383L65.202 81.222L64.714 82.038L61.688 87.08L66.73 84.054L67.546 83.566L69.385 82.461L69.57 82.351L69.753 82.241L71.229 81.357L72.585 80.543L73.216 80.163L73.242 80.147L73.425 80.039L73.608 79.929L74.568 79.354L74.746 79.246L75.646 78.709L76.073 78.453L76.624 78.122L77.114 77.829L77.649 77.508L77.884 77.365L76.662 76.143L76.066 75.548Z" fill="white"/>
<path d="M82.553 64.192L81.737 64.68L79.902 65.786L79.719 65.896L79.534 66.006L78.058 66.893L76.702 67.705L76.071 68.085L76.045 68.101L75.862 68.209L75.679 68.319L74.719 68.894L74.538 69.002L73.644 69.539L73.217 69.795L72.666 70.126L72.176 70.419L71.641 70.74L71.402 70.886L72.624 72.108L73.213 72.697L73.476 72.96L73.596 73.08L73.631 73.115L75.649 75.133L75.684 75.168L75.804 75.288L76.067 75.551L76.656 76.14L77.878 77.362L78.021 77.127L78.342 76.592L78.635 76.102L78.966 75.551L79.222 75.124L79.759 74.224L79.867 74.046L80.442 73.086L80.552 72.903L80.66 72.725L80.676 72.694L81.056 72.063L81.868 70.707L82.755 69.231L82.865 69.048L82.975 68.863L84.08 67.024L84.568 66.208L87.594 61.166L82.553 64.192Z" fill="#74BF44"/>
<path d="M74.64 28.49C65.6148 28.4898 56.7922 31.1659 49.2879 36.1799C41.7837 41.1939 35.9347 48.3205 32.4808 56.6587C29.0269 64.9968 28.1231 74.1719 29.8837 83.0237C31.6443 91.8755 35.9902 100.006 42.3719 106.388C48.7536 112.77 56.8845 117.116 65.7363 118.877C74.588 120.638 83.7631 119.734 92.1014 116.281C100.44 112.827 107.566 106.978 112.581 99.4739C117.595 91.9697 120.271 83.1472 120.271 74.122C120.257 62.0239 115.446 50.4253 106.891 41.8706C98.3366 33.3158 86.738 28.5038 74.64 28.49ZM116.308 83.811L113.551 83.072C114.119 80.6012 114.448 78.0817 114.536 75.548H117.389C117.3 78.331 116.938 81.0986 116.308 83.811ZM112.369 94.261L109.899 92.835C111.092 90.5975 112.068 88.2508 112.813 85.827L115.577 86.557C114.764 89.2228 113.689 91.8019 112.37 94.257M97.247 110.425L95.821 107.955C97.9656 106.606 99.9782 105.058 101.832 103.331L103.85 105.346C101.819 107.248 99.6091 108.949 97.25 110.425M87.083 115.054L86.344 112.297C88.7677 111.552 91.1145 110.576 93.352 109.383L94.778 111.853C92.3226 113.17 89.7435 114.242 87.078 115.053M76.057 116.875V114.022C78.5907 113.934 81.1101 113.605 83.581 113.037L84.32 115.794C81.6106 116.423 78.846 116.786 76.066 116.876L76.057 116.875ZM64.941 115.79L65.68 113.033C68.1508 113.601 70.6703 113.93 73.204 114.018V116.871C70.4239 116.781 67.6594 116.419 64.95 115.79H64.941ZM54.491 111.851L55.917 109.381C58.1545 110.574 60.5012 111.55 62.925 112.295L62.186 115.052C59.5253 114.24 56.9509 113.168 54.5 111.852L54.491 111.851ZM45.43 105.343L47.448 103.328C49.3018 105.055 51.3144 106.603 53.459 107.952L52.033 110.422C49.6739 108.946 47.4635 107.245 45.433 105.343M33.7 86.577L36.457 85.838C37.2021 88.2617 38.1779 90.6085 39.371 92.846L36.901 94.272C35.5832 91.8115 34.5113 89.227 33.701 86.556L33.7 86.577ZM32.961 64.444L35.718 65.183C35.1504 67.6538 34.8206 70.1733 34.733 72.707H31.887C31.9757 69.9199 32.3378 67.1483 32.968 64.432L32.961 64.444ZM36.9 53.99L39.37 55.416C38.1769 57.6535 37.2011 60.0002 36.456 62.424L33.7 61.69C34.5134 59.0242 35.5876 56.4451 36.907 53.99H36.9ZM52.026 37.83L53.452 40.3C51.3117 41.6457 49.3029 43.1899 47.452 44.912L45.434 42.897C47.4646 40.9946 49.6749 39.2936 52.034 37.818L52.026 37.83ZM62.189 33.201L62.928 35.958C60.5042 36.7031 58.1575 37.6789 55.92 38.872L54.494 36.402C56.9489 35.0809 59.528 34.005 62.194 33.19L62.189 33.201ZM73.216 31.38V34.233C70.6823 34.3206 68.1628 34.6504 65.692 35.218L64.953 32.461C67.6643 31.8276 70.4312 31.4615 73.214 31.368L73.216 31.38ZM84.331 32.462L83.592 35.219C81.1211 34.6514 78.6017 34.3216 76.068 34.234V31.369C78.8504 31.4585 81.6172 31.8206 84.329 32.45L84.331 32.462ZM94.781 36.401L93.355 38.871C91.1175 37.6779 88.7707 36.7021 86.347 35.957L87.086 33.2C89.7487 34.0085 92.3254 35.077 94.779 36.39L94.781 36.401ZM103.849 42.901L101.831 44.916C99.9773 43.1884 97.9647 41.6395 95.82 40.29L97.246 37.82C99.605 39.2956 101.815 40.9966 103.846 42.899M115.579 61.666L112.822 62.405C112.077 59.9812 111.101 57.6345 109.908 55.397L112.378 53.971C113.696 56.4315 114.768 59.016 115.578 61.687L115.579 61.666ZM111.692 72.69C111.711 73.159 111.722 73.628 111.722 74.116C111.722 74.604 111.722 75.069 111.692 75.542C111.605 77.8271 111.306 80.0992 110.798 82.329C110.587 83.2677 110.34 84.1857 110.059 85.083C109.381 87.2666 108.501 89.3824 107.431 91.403C106.985 92.2443 106.508 93.067 106 93.871C104.779 95.8021 103.384 97.6171 101.831 99.293C101.186 99.989 100.515 100.661 99.816 101.308C98.1401 102.861 96.3251 104.256 94.394 105.477C93.594 105.986 92.7713 106.463 91.926 106.908C89.9056 107.98 87.7898 108.863 85.606 109.543C84.702 109.824 83.784 110.071 82.852 110.282C80.6227 110.787 78.3512 111.084 76.067 111.169C75.598 111.188 75.129 111.199 74.641 111.199C74.153 111.199 73.688 111.199 73.215 111.169C70.9303 111.087 68.6582 110.793 66.428 110.29C65.4893 110.079 64.5703 109.832 63.671 109.551C61.4882 108.872 59.3731 107.993 57.353 106.923C56.5103 106.476 55.688 105.998 54.886 105.49C52.9548 104.269 51.1399 102.874 49.464 101.321C48.768 100.676 48.0963 100.005 47.449 99.306C45.8963 97.63 44.5008 95.8151 43.28 93.884C42.7713 93.084 42.2943 92.2613 41.849 91.416C40.779 89.3953 39.8992 87.2796 39.221 85.096C38.9396 84.192 38.6933 83.274 38.482 82.342C37.9769 80.1127 37.6799 77.8412 37.595 75.557C37.576 75.088 37.565 74.619 37.565 74.131C37.565 73.643 37.565 73.178 37.595 72.705C37.6794 70.4184 37.9764 68.1446 38.482 65.913C38.6933 64.9743 38.9396 64.0563 39.221 63.159C39.8992 60.9754 40.779 58.8596 41.849 56.839C42.295 55.9977 42.772 55.175 43.28 54.371C44.5008 52.4399 45.8963 50.6249 47.449 48.949C48.095 48.253 48.7666 47.5813 49.464 46.934C51.1399 45.3813 52.9548 43.9857 54.886 42.765C55.686 42.255 56.5086 41.778 57.354 41.334C59.3739 40.262 61.489 39.3799 63.672 38.699C64.5773 38.4177 65.4963 38.1713 66.429 37.96C68.6583 37.4549 70.9297 37.1579 73.214 37.073C73.683 37.054 74.152 37.043 74.64 37.043C75.128 37.043 75.593 37.055 76.066 37.073C78.3502 37.1579 80.6217 37.4549 82.851 37.96C83.7896 38.1713 84.7076 38.4177 85.605 38.699C87.7886 39.3771 89.9044 40.2569 91.925 41.327C92.7676 41.773 93.5903 42.25 94.393 42.758C96.3241 43.9787 98.1391 45.3743 99.815 46.927C100.512 47.573 101.184 48.2447 101.83 48.942C103.383 50.6179 104.778 52.4328 105.999 54.364C106.509 55.164 106.986 55.9867 107.43 56.832C108.5 58.8526 109.38 60.9684 110.058 63.152C110.339 64.056 110.586 64.974 110.797 65.906C111.303 68.1376 111.6 70.4114 111.684 72.698L111.692 72.69ZM108.48 52.939C107.129 50.7951 105.578 48.7835 103.849 46.931L105.864 44.913C107.766 46.9436 109.467 49.1539 110.943 51.513L108.48 52.939ZM43.415 44.913L45.43 46.931C43.7038 48.7846 42.1563 50.7968 40.808 52.941L38.338 51.515C39.8136 49.156 41.5146 46.9456 43.417 44.915M31.887 75.548H34.74C34.8276 78.0817 35.1574 80.6012 35.725 83.072L32.968 83.811C32.3381 81.0986 31.9767 78.3311 31.887 75.548ZM40.801 95.302C42.1514 97.4468 43.7013 99.4594 45.43 101.313L43.415 103.331C41.5126 101.3 39.8116 99.09 38.336 96.731L40.801 95.302ZM105.858 103.33L103.847 101.312C105.574 99.4582 107.122 97.4456 108.471 95.301L110.941 96.727C109.465 99.0861 107.764 101.296 105.862 103.327L105.858 103.33ZM114.539 72.695C114.451 70.1613 114.122 67.6418 113.554 65.171L116.311 64.432C116.941 67.1443 117.303 69.9119 117.393 72.695H114.539Z" fill="#2D2D2E"/>
<path d="M84.674 59.592L79.635 62.626L79.166 62.903L79.107 62.938L78.98 63.013L78.795 63.123L76.057 64.765L75.588 65.047L73.946 66.037L73.725 66.168L73.533 66.283L73.333 66.403L73.209 66.476L72.209 67.076L71.402 67.552L70.581 68.045L69.767 68.533L69.319 68.8L69.052 69.248L68.564 70.062L68.071 70.883L67.585 71.692L66.985 72.692L66.912 72.816L66.792 73.016L66.675 73.216L66.546 73.432L65.556 75.074L65.274 75.543L63.632 78.281L63.522 78.466L63.447 78.593L63.412 78.652L63.135 79.121L60.111 84.16L56.395 90.354L53.371 95.396L58.413 92.372L64.607 88.656L69.644 85.623L70.113 85.346L70.172 85.311L70.299 85.236L70.484 85.126L73.222 83.481L73.691 83.199L75.333 82.209L75.554 82.078L75.746 81.963L75.946 81.843L76.07 81.77L77.07 81.17L77.879 80.684L78.7 80.191L79.514 79.703L79.962 79.436L80.229 78.988L80.717 78.174L81.21 77.353L81.696 76.544L82.296 75.544L82.369 75.42L82.489 75.22L82.606 75.02L82.735 74.82L83.725 73.178L84.007 72.709L85.649 69.971L85.759 69.786L85.834 69.659L85.869 69.6L86.146 69.131L89.17 64.092L92.886 57.898L95.91 52.856L90.868 55.88L84.674 59.592ZM84.568 66.208L84.08 67.024L82.968 68.863L82.858 69.046L82.748 69.231L81.864 70.707L81.05 72.063L80.67 72.694L80.654 72.725L80.546 72.903L80.436 73.086L79.861 74.046L79.753 74.227L79.216 75.121L78.96 75.548L78.629 76.099L78.329 76.589L78.01 77.124L77.867 77.359L77.632 77.502L77.099 77.821L76.613 78.11L76.062 78.441L75.635 78.697L74.753 79.241L74.572 79.349L73.612 79.924L73.429 80.034L73.248 80.144L73.22 80.158L72.589 80.538L71.233 81.352L69.757 82.236L69.572 82.346L69.389 82.456L67.55 83.561L66.734 84.049L61.692 87.075L64.718 82.033L65.206 81.2169L66.311 79.378L66.421 79.195L66.531 79.01L67.415 77.534L68.229 76.178L68.609 75.547L68.625 75.516L68.733 75.338L68.843 75.155L69.418 74.195L69.526 74.014L70.063 73.12L70.319 72.693L70.65 72.142L70.95 71.652L71.269 71.117L71.412 70.882L71.647 70.739L72.182 70.42L72.672 70.12L73.223 69.789L73.65 69.533L74.544 68.996L74.725 68.888L75.685 68.313L75.868 68.203L76.049 68.093L76.077 68.079L76.708 67.699L78.064 66.885L79.54 66.001L79.725 65.891L79.908 65.781L81.747 64.676L82.563 64.188L87.605 61.162L84.568 66.208Z" fill="#2D2D2E"/>
<path d="M103.159 73.9079V75.5479H106.012V72.6949H103.159V73.9079Z" fill="#2D2D2E"/>
<path d="M43.267 75.5479H46.12V72.6949H43.267V75.5479Z" fill="#2D2D2E"/>
<path d="M74.639 102.641H73.213V105.494H76.066V102.641H74.64H74.639Z" fill="#2D2D2E"/>
<path d="M74.639 45.602H76.065V42.749H73.213V45.602H74.639Z" fill="#2D2D2E"/>
</g>
</g>
<defs>
<clipPath id="clip0_60_249">
<rect width="148" height="148" fill="white" transform="translate(0.5)"/>
</clipPath>
</defs>
</svg>
