<svg width="156" height="148" viewBox="0 0 156 148" fill="none" xmlns="http://www.w3.org/2000/svg">
<g clip-path="url(#clip0_60_233)">
<path d="M74.8195 148C115.689 148 148.819 114.869 148.819 74C148.819 33.1309 115.689 0 74.8195 0C33.9504 0 0.819458 33.1309 0.819458 74C0.819458 114.869 33.9504 148 74.8195 148Z" fill="white"/>
<path d="M74.8195 147.5C115.412 147.5 148.319 114.593 148.319 74C148.319 33.4071 115.412 0.5 74.8195 0.5C34.2265 0.5 1.31946 33.4071 1.31946 74C1.31946 114.593 34.2265 147.5 74.8195 147.5Z" stroke="#D9D9D9"/>
<mask id="mask0_60_233" style="mask-type:luminance" maskUnits="userSpaceOnUse" x="28" y="18" width="128" height="104">
<path d="M155.18 18.9192H28.4025V121.26H155.18V18.9192Z" fill="white"/>
</mask>
<g mask="url(#mask0_60_233)">
<path d="M74.8245 119.678C74.8237 119.364 74.916 119.057 75.0898 118.796C75.2636 118.534 75.511 118.33 75.8007 118.209C76.0904 118.089 76.4095 118.056 76.7175 118.117C77.0256 118.178 77.3087 118.328 77.5312 118.55C77.7537 118.771 77.9054 119.054 77.9673 119.361C78.0292 119.669 77.9985 119.988 77.8789 120.279C77.7594 120.569 77.5564 120.817 77.2958 120.992C77.0351 121.167 76.7284 121.261 76.4145 121.261C75.9941 121.261 75.5908 121.095 75.2931 120.798C74.9954 120.501 74.8275 120.099 74.8265 119.678M64.8695 119.89C64.6673 119.841 64.4767 119.752 64.3087 119.629C64.1408 119.506 63.9987 119.351 63.8905 119.174C63.7824 118.996 63.7104 118.798 63.6785 118.593C63.6467 118.387 63.6557 118.177 63.705 117.975C63.7543 117.772 63.843 117.582 63.9659 117.414C64.0889 117.246 64.2437 117.104 64.4216 116.996C64.5994 116.888 64.7969 116.816 65.0026 116.784C65.2083 116.752 65.4183 116.761 65.6205 116.81C66.0296 116.91 66.3824 117.168 66.6012 117.527C66.8201 117.887 66.8871 118.319 66.7875 118.728C66.6879 119.137 66.4299 119.49 66.0702 119.709C65.7105 119.928 65.2786 119.995 64.8695 119.895M86.0385 118.7C85.9636 118.396 85.9805 118.076 86.0873 117.781C86.194 117.486 86.3857 117.23 86.6382 117.044C86.8906 116.858 87.1925 116.751 87.5057 116.737C87.8189 116.722 88.1293 116.801 88.3977 116.963C88.6662 117.125 88.8806 117.363 89.0139 117.647C89.1473 117.93 89.1935 118.247 89.1468 118.557C89.1002 118.867 88.9626 119.157 88.7517 119.388C88.5407 119.62 88.2657 119.784 87.9615 119.86C87.836 119.892 87.707 119.908 87.5775 119.907C87.2231 119.906 86.8791 119.787 86.6003 119.569C86.3214 119.35 86.1237 119.044 86.0385 118.7ZM53.9805 115.782C53.6387 115.601 53.3749 115.301 53.2391 114.939C53.1032 114.577 53.1047 114.178 53.2432 113.816C53.3816 113.455 53.6476 113.157 53.9907 112.979C54.3338 112.8 54.7305 112.754 55.1057 112.848C55.4809 112.942 55.8087 113.17 56.0273 113.489C56.2459 113.808 56.34 114.196 56.292 114.58C56.244 114.964 56.0571 115.316 55.7667 115.572C55.4762 115.827 55.1023 115.968 54.7155 115.966C54.4592 115.965 54.207 115.902 53.9805 115.782ZM96.6885 115.057C96.5419 114.78 96.4809 114.465 96.5133 114.152C96.5457 113.84 96.6699 113.545 96.8704 113.303C97.0708 113.061 97.3384 112.884 97.6393 112.795C97.9403 112.705 98.261 112.707 98.5609 112.8C98.8608 112.893 99.1265 113.072 99.3243 113.316C99.522 113.56 99.6431 113.857 99.6721 114.17C99.701 114.482 99.6366 114.796 99.487 115.072C99.3374 115.348 99.1093 115.574 98.8315 115.72C98.6041 115.842 98.3502 115.905 98.0925 115.904C97.8042 115.904 97.5215 115.825 97.2748 115.676C97.0281 115.527 96.8268 115.313 96.6925 115.058M44.4025 109.179C44.1252 108.933 43.943 108.597 43.8878 108.23C43.8325 107.864 43.9077 107.489 44.1001 107.172C44.2926 106.855 44.5901 106.615 44.941 106.495C45.2918 106.375 45.6738 106.381 46.0203 106.513C46.3668 106.646 46.656 106.895 46.8375 107.219C47.0189 107.542 47.0812 107.919 47.0134 108.284C46.9456 108.648 46.7521 108.978 46.4665 109.215C46.181 109.451 45.8214 109.58 45.4505 109.579C45.0641 109.578 44.6914 109.436 44.4025 109.179ZM106.149 108.958C105.942 108.724 105.808 108.433 105.765 108.122C105.722 107.811 105.773 107.495 105.91 107.213C106.047 106.931 106.265 106.696 106.535 106.537C106.806 106.379 107.117 106.304 107.43 106.323C107.743 106.342 108.044 106.452 108.294 106.642C108.544 106.831 108.732 107.09 108.835 107.386C108.938 107.683 108.95 108.003 108.871 108.306C108.792 108.61 108.625 108.883 108.39 109.091C108.076 109.37 107.663 109.513 107.243 109.488C106.824 109.463 106.431 109.272 106.151 108.958M36.6705 100.489C36.4667 100.197 36.3669 99.8448 36.3871 99.4891C36.4073 99.1334 36.5463 98.7948 36.7818 98.5275C37.0173 98.2601 37.3357 98.0796 37.686 98.0148C38.0363 97.9499 38.3982 98.0045 38.7138 98.1699C39.0294 98.3352 39.2804 98.6016 39.4265 98.9265C39.5727 99.2514 39.6055 99.616 39.5199 99.9618C39.4342 100.308 39.2349 100.615 38.954 100.834C38.6731 101.053 38.3267 101.171 37.9705 101.17C37.715 101.17 37.4634 101.107 37.2371 100.989C37.0108 100.87 36.8164 100.699 36.6705 100.489ZM113.886 100.789C113.574 100.574 113.349 100.253 113.253 99.8859C113.157 99.5188 113.195 99.1292 113.361 98.788C113.528 98.4468 113.811 98.1765 114.159 98.0261C114.508 97.8757 114.899 97.8552 115.261 97.9683C115.623 98.0814 115.933 98.3207 116.134 98.6427C116.335 98.9646 116.414 99.348 116.357 99.7232C116.299 100.098 116.109 100.441 115.821 100.688C115.533 100.935 115.166 101.071 114.786 101.07C114.465 101.07 114.151 100.972 113.886 100.789ZM31.2405 90.2072C31.129 89.9141 31.107 89.5945 31.1771 89.2888C31.2472 88.9832 31.4064 88.7052 31.6344 88.4899C31.8625 88.2747 32.1493 88.1319 32.4585 88.0797C32.7677 88.0274 33.0855 88.0679 33.3716 88.1962C33.6578 88.3245 33.8995 88.5347 34.0662 88.8003C34.233 89.0659 34.3172 89.375 34.3083 89.6885C34.2994 90.0019 34.1978 90.3057 34.0162 90.5615C33.8347 90.8172 33.5815 91.0134 33.2885 91.1252C33.1076 91.1919 32.9163 91.2258 32.7235 91.2252C32.4017 91.2251 32.0876 91.1272 31.8228 90.9445C31.5579 90.7618 31.3548 90.5029 31.2405 90.2022M119.454 90.9952C119.083 90.8567 118.777 90.5843 118.596 90.2315C118.415 89.8787 118.373 89.471 118.477 89.0886C118.582 88.7062 118.826 88.3767 119.161 88.1649C119.496 87.953 119.898 87.8742 120.288 87.9439C120.679 88.0136 121.029 88.2268 121.27 88.5415C121.511 88.8562 121.625 89.2497 121.591 89.6447C121.557 90.0396 121.376 90.4074 121.084 90.6759C120.793 90.9443 120.411 91.0939 120.014 91.0952C119.823 91.0958 119.634 91.062 119.454 90.9952ZM28.4385 78.9182C28.3999 78.6064 28.4548 78.2903 28.5961 78.0097C28.7374 77.7291 28.9587 77.4968 29.2321 77.3422C29.5055 77.1875 29.8187 77.1175 30.132 77.1409C30.4452 77.1644 30.7444 77.2802 30.9918 77.4739C31.2391 77.6675 31.4234 77.9302 31.5214 78.2287C31.6193 78.5271 31.6265 78.8479 31.542 79.1505C31.4575 79.453 31.2851 79.7237 31.0466 79.9282C30.8081 80.1327 30.5144 80.2618 30.2025 80.2992C30.1385 80.3073 30.074 80.311 30.0095 80.3102C29.623 80.3094 29.2501 80.1676 28.9608 79.9113C28.6715 79.6549 28.4858 79.3018 28.4385 78.9182ZM122.502 80.1592C122.094 80.1086 121.722 79.9011 121.465 79.5806C121.207 79.2601 121.085 78.8519 121.123 78.4425C121.161 78.0332 121.358 77.6549 121.67 77.3879C121.983 77.1209 122.387 76.9862 122.798 77.0124C123.208 77.0386 123.592 77.2236 123.868 77.5282C124.144 77.8328 124.291 78.2329 124.277 78.6438C124.263 79.0548 124.09 79.4441 123.793 79.7292C123.497 80.0144 123.102 80.1729 122.69 80.1712C122.628 80.1718 122.565 80.1678 122.502 80.1592ZM29.8025 69.0522C29.3945 69.0016 29.0222 68.7941 28.7646 68.4736C28.5071 68.1531 28.3845 67.7449 28.4229 67.3355C28.4613 66.9262 28.6577 66.5479 28.9704 66.2809C29.283 66.0139 29.6874 65.8792 30.0977 65.9054C30.508 65.9316 30.892 66.1166 31.1682 66.4212C31.4444 66.7257 31.5911 67.1259 31.5771 67.5368C31.5632 67.9478 31.3897 68.3371 31.0935 68.6222C30.7973 68.9074 30.4016 69.0659 29.9905 69.0642C29.9276 69.0637 29.8649 69.0596 29.8025 69.0522ZM121.102 67.5272C121.052 67.1095 121.169 66.6888 121.429 66.3577C121.689 66.0266 122.069 65.8122 122.487 65.7617C122.905 65.7112 123.325 65.8286 123.656 66.0883C123.988 66.3479 124.202 66.7285 124.252 67.1462C124.302 67.5639 124.184 67.9843 123.925 68.3151C123.665 68.6458 123.284 68.8599 122.866 68.9102C122.803 68.9188 122.738 68.9228 122.673 68.9222C122.287 68.9209 121.914 68.7785 121.624 68.5216C121.335 68.2648 121.149 67.9112 121.102 67.5272ZM32.0865 58.0272C31.716 57.8889 31.4106 57.617 31.2304 57.265C31.0502 56.913 31.0082 56.5063 31.1126 56.1248C31.2171 55.7434 31.4604 55.4149 31.7949 55.2038C32.1293 54.9926 32.5306 54.9143 32.9198 54.984C33.3091 55.0538 33.6582 55.2666 33.8985 55.5807C34.1388 55.8948 34.2529 56.2875 34.2184 56.6814C34.1838 57.0754 34.0032 57.4422 33.712 57.7097C33.4207 57.9773 33.04 58.1262 32.6445 58.1272C32.454 58.1281 32.2649 58.0942 32.0865 58.0272ZM118.503 56.9792C118.392 56.6857 118.371 56.3659 118.441 56.0601C118.512 55.7544 118.671 55.4764 118.9 55.2613C119.128 55.0462 119.415 54.9036 119.725 54.8517C120.034 54.7997 120.352 54.8407 120.638 54.9694C120.925 55.0981 121.166 55.3088 121.333 55.5748C121.499 55.8408 121.583 56.1502 121.574 56.4638C121.564 56.7775 121.462 57.0814 121.28 57.337C121.098 57.5927 120.845 57.7887 120.551 57.9002C120.371 57.9671 120.179 58.001 119.986 58.0002C119.665 57.9997 119.35 57.9014 119.086 57.7184C118.821 57.5353 118.618 57.2762 118.503 56.9752M36.9595 47.8752C36.6466 47.6602 36.4212 47.3402 36.324 46.9732C36.2269 46.6063 36.2645 46.2166 36.4301 45.875C36.5957 45.5334 36.8782 45.2625 37.2264 45.1114C37.5747 44.9602 37.9655 44.939 38.3281 45.0514C38.6907 45.1638 39.001 45.4024 39.2027 45.724C39.4044 46.0456 39.4841 46.4288 39.4274 46.8042C39.3707 47.1795 39.1814 47.5221 38.8937 47.7698C38.606 48.0175 38.2391 48.1539 37.8595 48.1542C37.5382 48.1543 37.2244 48.057 36.9595 47.8752ZM113.445 47.3642C113.244 47.0727 113.145 46.7219 113.166 46.3679C113.187 46.0139 113.326 45.6771 113.561 45.4113C113.795 45.1455 114.112 44.966 114.461 44.9016C114.81 44.8372 115.17 44.8914 115.484 45.0558C115.799 45.2201 116.049 45.485 116.195 45.8082C116.341 46.1314 116.374 46.4941 116.29 46.8386C116.205 47.183 116.008 47.4892 115.729 47.7083C115.45 47.9274 115.106 48.0467 114.751 48.0472C114.495 48.0477 114.242 47.9858 114.014 47.8668C113.787 47.7479 113.592 47.5754 113.445 47.3642ZM44.1215 39.1882C43.881 38.9173 43.7407 38.5721 43.7239 38.2103C43.7072 37.8484 43.8151 37.4918 44.0296 37.1999C44.2441 36.908 44.5522 36.6984 44.9025 36.6063C45.2528 36.5141 45.6241 36.5449 45.9545 36.6935C46.2849 36.842 46.5543 37.0994 46.7178 37.4226C46.8813 37.7459 46.929 38.1154 46.853 38.4696C46.7769 38.8237 46.5817 39.1411 46.2999 39.3687C46.0181 39.5963 45.6667 39.7204 45.3045 39.7202C45.0809 39.72 44.86 39.6724 44.6561 39.5807C44.4522 39.4891 44.27 39.3553 44.1215 39.1882ZM106.235 39.2372C105.956 38.9901 105.773 38.6529 105.716 38.2844C105.66 37.9158 105.735 37.5392 105.928 37.2201C106.121 36.901 106.419 36.6597 106.772 36.5382C107.124 36.4167 107.508 36.4226 107.857 36.555C108.205 36.6874 108.496 36.9379 108.679 37.2628C108.862 37.5877 108.925 37.9664 108.858 38.3331C108.79 38.6997 108.596 39.031 108.309 39.2693C108.023 39.5076 107.661 39.6378 107.288 39.6372C106.9 39.637 106.526 39.4947 106.235 39.2372ZM53.1355 32.4562C52.9723 32.1491 52.9143 31.7969 52.9705 31.4536C53.0266 31.1104 53.1937 30.795 53.4462 30.5559C53.6987 30.3167 54.0226 30.1669 54.3684 30.1294C54.7142 30.092 55.0627 30.1689 55.3605 30.3485C55.6584 30.5281 55.8891 30.8003 56.0175 31.1236C56.1458 31.4469 56.1646 31.8033 56.0709 32.1382C55.9773 32.4732 55.7764 32.7682 55.4991 32.9781C55.2218 33.1879 54.8833 33.3011 54.5355 33.3002C54.2475 33.2999 53.965 33.2212 53.7184 33.0725C53.4717 32.9238 53.2702 32.7107 53.1355 32.4562ZM97.2935 33.0562C96.9515 32.8752 96.6875 32.5752 96.5515 32.2129C96.4155 31.8506 96.4169 31.4511 96.5552 31.0897C96.6936 30.7283 96.9595 30.4301 97.3027 30.2513C97.6459 30.0726 98.0427 30.0256 98.4182 30.1194C98.7936 30.2131 99.1218 30.441 99.3407 30.7601C99.5596 31.0792 99.6541 31.4674 99.6064 31.8515C99.5587 32.2355 99.3721 32.5888 99.0817 32.8446C98.7914 33.1004 98.4175 33.2412 98.0305 33.2402C97.7735 33.2395 97.5206 33.1764 97.2935 33.0562ZM63.5025 28.0792C63.4262 27.7748 63.4418 27.4546 63.5474 27.1591C63.653 26.8636 63.8439 26.6061 64.0959 26.419C64.3478 26.232 64.6496 26.1238 64.963 26.1082C65.2764 26.0926 65.5874 26.1703 65.8567 26.3314C66.126 26.4925 66.3414 26.7299 66.4759 27.0134C66.6103 27.297 66.6576 27.614 66.6119 27.9245C66.5662 28.2349 66.4295 28.5249 66.219 28.7576C66.0085 28.9904 65.7338 29.1555 65.4295 29.2322C65.3037 29.2623 65.1748 29.2777 65.0455 29.2782C64.692 29.2778 64.3488 29.1596 64.0701 28.9423C63.7913 28.7249 63.593 28.4209 63.5065 28.0782M87.1325 29.2032C86.9288 29.1548 86.7368 29.0665 86.5674 28.9435C86.3981 28.8205 86.2547 28.6652 86.1457 28.4865C86.0366 28.3078 85.964 28.1093 85.932 27.9025C85.9 27.6956 85.9093 27.4845 85.9594 27.2812C86.0094 27.0779 86.0991 26.8866 86.2235 26.7182C86.3478 26.5498 86.5042 26.4077 86.6838 26.3C86.8633 26.1924 87.0623 26.1213 87.2694 26.091C87.4766 26.0606 87.6876 26.0716 87.8905 26.1232C88.2664 26.2167 88.5951 26.4444 88.8148 26.7634C89.0345 27.0823 89.1301 27.4706 89.0835 27.8551C89.0369 28.2397 88.8514 28.5939 88.5619 28.8512C88.2724 29.1085 87.8988 29.2511 87.5115 29.2522C87.3837 29.2528 87.2564 29.2374 87.1325 29.2062M74.6235 26.3262C74.6222 26.1178 74.662 25.9111 74.7407 25.7181C74.8194 25.5251 74.9354 25.3495 75.0821 25.2014C75.2288 25.0533 75.4033 24.9357 75.5955 24.8552C75.7878 24.7746 75.9941 24.7328 76.2025 24.7322H76.2745H76.3415C76.5532 24.7269 76.7638 24.764 76.9609 24.8413C77.1581 24.9187 77.3377 25.0347 77.4893 25.1825C77.6409 25.3304 77.7614 25.5071 77.8437 25.7022C77.9259 25.8973 77.9683 26.1069 77.9683 26.3187C77.9683 26.5305 77.9259 26.7401 77.8437 26.9352C77.7614 27.1303 77.6409 27.307 77.4893 27.4549C77.3377 27.6027 77.1581 27.7187 76.9609 27.7961C76.7638 27.8734 76.5532 27.9105 76.3415 27.9052H76.2745H76.2115C75.7911 27.9055 75.3878 27.7389 75.0901 27.4421C74.7924 27.1454 74.6245 26.7426 74.6235 26.3222" fill="#B9E0D7"/>
<path d="M76.3725 37.2002C85.0011 37.2053 93.3372 40.3288 99.8447 45.9951C106.352 51.6615 110.592 59.4888 111.784 68.0348C112.975 76.5808 111.038 85.2695 106.329 92.4998C101.62 99.7301 94.456 105.015 86.1579 107.38C77.8597 109.745 68.9863 109.032 61.1728 105.371C53.3593 101.71 47.1322 95.3479 43.6391 87.4579C40.146 79.5679 39.6223 70.6812 42.1644 62.4355C44.7065 54.1898 50.1431 47.1407 57.4725 42.5872C63.1466 39.0637 69.6933 37.1977 76.3725 37.2002ZM76.3725 33.2002C66.5786 33.1856 57.1232 36.7827 49.8154 43.3032C42.5077 49.8237 37.8607 58.8097 36.7636 68.542C35.6666 78.2743 38.1965 88.0693 43.8693 96.053C49.542 104.037 57.9594 109.649 67.5107 111.815C77.0621 113.981 87.0768 112.549 95.6386 107.793C104.2 103.038 110.708 95.2924 113.917 86.039C117.125 76.7856 116.809 66.674 113.029 57.639C109.249 48.604 102.271 41.2799 93.4285 37.0682C88.099 34.5312 82.272 33.2113 76.3695 33.2042" fill="#2D2D2E"/>
<path d="M76.3614 52.1182C81.8726 52.1615 87.1431 54.3826 91.0229 58.2969C94.9027 62.2113 97.077 67.5012 97.0715 73.0125C97.0659 78.5239 94.881 83.8094 90.9933 87.716C87.1056 91.6225 81.8307 93.833 76.3194 93.8652C73.2242 93.868 70.1679 93.1753 67.3764 91.8382C63.0947 89.8046 59.6327 86.374 57.5604 82.1109C55.488 77.8477 54.9288 73.0061 55.9746 68.3827C57.0204 63.7594 59.6091 59.6299 63.3145 56.6737C67.0199 53.7175 71.6213 52.1109 76.3614 52.1182ZM76.3614 48.1182C70.2403 48.1106 64.3312 50.3602 59.7649 54.4367C55.1986 58.5131 52.2956 64.1301 51.6115 70.2129C50.9273 76.2957 52.51 82.4172 56.0567 87.4062C59.6034 92.3951 64.8651 95.9012 70.835 97.2535C76.8049 98.6059 83.0639 97.7095 88.4143 94.736C93.7647 91.7625 97.8309 86.9206 99.8348 81.1368C101.839 75.3529 101.64 69.0333 99.2759 63.387C96.9121 57.7407 92.5493 53.1642 87.0224 50.5332C83.6918 48.9477 80.0502 48.1228 76.3614 48.1182Z" fill="#2D2D2E"/>
<path d="M76.3495 62.8472V66.8472C77.9797 66.849 79.5423 67.4984 80.6937 68.6524C81.8451 69.8064 82.4909 71.3705 82.489 73.0007C82.4871 74.6308 81.8378 76.1935 80.6838 77.3449C79.5298 78.4962 77.9656 79.142 76.3355 79.1402C75.4243 79.1402 74.5247 78.9351 73.7035 78.5402C72.4421 77.9413 71.4222 76.9309 70.8116 75.6751C70.201 74.4194 70.0361 72.9932 70.3441 71.6312C70.6521 70.2693 71.4147 69.0528 72.5062 68.182C73.5977 67.3112 74.9532 66.838 76.3495 66.8402V62.8472ZM76.3495 62.8472C73.8513 62.8436 71.4395 63.7614 69.5756 65.4248C67.7117 67.0881 66.5265 69.3804 66.2469 71.8629C65.9673 74.3454 66.6129 76.8439 68.0601 78.8802C69.5073 80.9165 71.6545 82.3478 74.0909 82.9C76.5273 83.4523 79.0818 83.0868 81.2656 81.8735C83.4494 80.6602 85.1092 78.6843 85.9273 76.3238C86.7454 73.9634 86.6645 71.3841 85.7 69.0796C84.7354 66.7751 82.9551 64.9072 80.6995 63.8332C79.3405 63.1861 77.8547 62.8493 76.3495 62.8472Z" fill="#2D2D2E"/>
<path d="M76.3464 74.9952C75.9055 74.996 75.4767 74.851 75.1267 74.5829C74.7767 74.3147 74.5252 73.9385 74.4111 73.5126C74.297 73.0867 74.3269 72.6351 74.496 72.2279C74.6652 71.8208 74.9642 71.4809 75.3464 71.2612L107.195 52.9332C107.423 52.8019 107.674 52.7167 107.935 52.6825C108.196 52.6483 108.461 52.6658 108.714 52.734C108.968 52.8021 109.206 52.9196 109.415 53.0798C109.623 53.2399 109.798 53.4395 109.929 53.6672C110.061 53.8949 110.146 54.1463 110.18 54.4069C110.214 54.6675 110.197 54.9323 110.129 55.1862C110.06 55.4401 109.943 55.6781 109.783 55.8865C109.623 56.095 109.423 56.2699 109.195 56.4012L77.3464 74.7292C77.0424 74.9048 76.6974 74.9969 76.3464 74.9962" fill="#74BF44"/>
<path d="M139.186 18.9192L109.813 34.9782L107.075 53.1972L106.703 55.6802L108.995 56.7082L125.81 64.2332L155.181 48.1672L136.074 39.6142L139.186 18.9192ZM113.475 37.5382L134.03 26.2982L132.038 39.5492L111.486 50.7892L113.475 37.5382ZM125.633 59.7692L113.403 54.2972L133.958 43.0522L146.186 48.5242L125.633 59.7692Z" fill="#74BF44"/>
</g>
</g>
<defs>
<clipPath id="clip0_60_233">
<rect width="154.361" height="148" fill="white" transform="translate(0.819458)"/>
</clipPath>
</defs>
</svg>
