<svg width="90" height="88" viewBox="0 0 90 88" fill="none" xmlns="http://www.w3.org/2000/svg">
<g clip-path="url(#clip0_64_428)">
<mask id="mask0_64_428" style="mask-type:luminance" maskUnits="userSpaceOnUse" x="0" y="0" width="90" height="88">
<path d="M90 0H0V87.198H90V0Z" fill="white"/>
</mask>
<g mask="url(#mask0_64_428)">
<path d="M37.504 70.73H52.855C53.2661 70.73 53.6603 70.8933 53.951 71.184C54.2417 71.4746 54.405 71.8689 54.405 72.28C54.405 72.6911 54.2417 73.0853 53.951 73.376C53.6603 73.6667 53.2661 73.83 52.855 73.83H37.504C37.0929 73.83 36.6986 73.6667 36.408 73.376C36.1173 73.0853 35.954 72.6911 35.954 72.28C35.954 71.8689 36.1173 71.4746 36.408 71.184C36.6986 70.8933 37.0929 70.73 37.504 70.73Z" fill="#A7A6A4"/>
<path d="M37.504 75.3109H52.855C53.0632 75.3035 53.2708 75.338 53.4654 75.4125C53.66 75.4871 53.8376 75.6 53.9875 75.7447C54.1375 75.8894 54.2568 76.0628 54.3382 76.2545C54.4197 76.4463 54.4617 76.6526 54.4617 76.8609C54.4617 77.0693 54.4197 77.2755 54.3382 77.4673C54.2568 77.6591 54.1375 77.8325 53.9875 77.9772C53.8376 78.1218 53.66 78.2348 53.4654 78.3093C53.2708 78.3839 53.0632 78.4184 52.855 78.4109H37.504C37.1025 78.3965 36.7223 78.2269 36.4434 77.9378C36.1645 77.6487 36.0087 77.2626 36.0087 76.8609C36.0087 76.4592 36.1645 76.0732 36.4434 75.7841C36.7223 75.495 37.1025 75.3254 37.504 75.3109Z" fill="#A7A6A4"/>
<path d="M37.504 79.895H52.855C53.2661 79.895 53.6603 80.0583 53.951 80.349C54.2417 80.6397 54.405 81.0339 54.405 81.445C54.405 81.8561 54.2417 82.2504 53.951 82.541C53.6603 82.8317 53.2661 82.995 52.855 82.995H37.504C37.0929 82.995 36.6986 82.8317 36.408 82.541C36.1173 82.2504 35.954 81.8561 35.954 81.445C35.954 81.0339 36.1173 80.6397 36.408 80.349C36.6986 80.0583 37.0929 79.895 37.504 79.895Z" fill="#A7A6A4"/>
<path d="M41.058 84.479C40.758 84.479 40.448 84.499 40.141 84.516C40.6991 85.339 41.4497 86.0133 42.3275 86.4804C43.2053 86.9475 44.1839 87.1933 45.1783 87.1963C46.1727 87.1994 47.1528 86.9596 48.0335 86.498C48.9142 86.0363 49.6689 85.3666 50.232 84.547C47.446 84.612 44.645 84.461 41.864 84.499C41.596 84.482 41.325 84.473 41.058 84.479Z" fill="#595857"/>
<path d="M45.18 24.415C39.5541 24.4217 34.1605 26.6598 30.1829 30.6384C26.2052 34.617 23.9683 40.0111 23.963 45.637C23.963 52.443 27.53 58.483 31.94 62.76C33.4925 64.4841 34.7515 66.4513 35.667 68.583C35.8309 68.9319 36.1265 69.2016 36.4889 69.3329C36.8513 69.4642 37.251 69.4464 37.6003 69.2835C37.9497 69.1205 38.2201 68.8257 38.3524 68.4636C38.4847 68.1016 38.468 67.7018 38.306 67.352C38.292 67.323 38.278 67.295 38.263 67.267C38.2575 67.2541 38.2508 67.2417 38.243 67.23C37.2054 64.8164 35.7595 62.5996 33.969 60.677C29.98 56.808 26.886 51.415 26.886 45.637C26.8643 40.806 28.7527 36.1621 32.1398 32.7171C35.5268 29.2722 40.1381 27.3054 44.9688 27.2452C49.7996 27.1851 54.4584 29.0365 57.9301 32.396C61.4019 35.7555 63.4054 40.3509 63.504 45.181C63.504 45.333 63.504 45.485 63.504 45.637C63.504 51.415 60.396 56.808 56.421 60.677C54.6305 62.5996 53.1847 64.8164 52.147 67.23C51.9627 67.57 51.921 67.9694 52.0311 68.3401C52.1411 68.7109 52.394 69.0227 52.734 69.207C53.074 69.3914 53.4733 69.4331 53.8441 69.323C54.2148 69.2129 54.5267 68.96 54.711 68.62L54.731 68.583C55.6454 66.4507 56.9046 64.4834 58.458 62.76C62.858 58.486 66.421 52.444 66.421 45.637C66.4141 40.0107 64.176 34.6168 60.1976 30.6384C56.2192 26.66 50.8253 24.4219 45.199 24.415H45.18Z" fill="#595857"/>
<path d="M44.675 69.017C44.355 69.0149 44.0488 68.8859 43.8239 68.6583C43.5989 68.4306 43.4734 68.123 43.475 67.803L43.58 41.219C43.576 41.0576 43.6044 40.8971 43.6635 40.7469C43.7226 40.5968 43.8113 40.46 43.9242 40.3446C44.0371 40.2293 44.172 40.1378 44.3209 40.0755C44.4698 40.0132 44.6297 39.9815 44.7911 39.9821C44.9525 39.9827 45.1122 40.0156 45.2606 40.079C45.409 40.1424 45.5433 40.2349 45.6553 40.3511C45.7674 40.4672 45.855 40.6047 45.913 40.7553C45.971 40.906 45.9982 41.0667 45.993 41.228L45.884 67.812C45.8832 68.1319 45.7556 68.4384 45.5291 68.6643C45.3027 68.8901 44.9959 69.017 44.676 69.017" fill="#74BF44"/>
<path d="M44.783 41.9569C43.8845 41.9904 42.9964 41.7546 42.2329 41.2797C41.4694 40.8048 40.8653 40.1125 40.4982 39.2917C40.131 38.471 40.0175 37.5592 40.1723 36.6735C40.3272 35.7878 40.7432 34.9686 41.367 34.321C41.9909 33.6735 42.794 33.2272 43.6733 33.0395C44.5526 32.8517 45.468 32.9311 46.3019 33.2674C47.1358 33.6038 47.8501 34.1816 48.3531 34.9269C48.8562 35.6722 49.125 36.5508 49.125 37.4499C49.1432 38.6223 48.6969 39.7543 47.8833 40.5988C47.0698 41.4432 45.9553 41.9315 44.783 41.9569ZM44.783 35.3569C44.3686 35.3246 43.954 35.416 43.5916 35.6195C43.2292 35.8231 42.9353 36.1295 42.7472 36.5002C42.5591 36.8708 42.4852 37.2889 42.5349 37.7015C42.5845 38.1142 42.7555 38.5028 43.0262 38.8182C43.2969 39.1336 43.6551 39.3616 44.0554 39.4733C44.4558 39.585 44.8803 39.5754 45.2751 39.4457C45.67 39.316 46.0175 39.0721 46.2737 38.7447C46.5298 38.4174 46.683 38.0214 46.714 37.6069C46.714 37.5529 46.72 37.4989 46.72 37.4449C46.7384 36.9116 46.545 36.3927 46.1821 36.0015C45.8192 35.6103 45.3162 35.3785 44.783 35.3569Z" fill="#74BF44"/>
<path d="M37.2189 52.265C36.3209 52.2957 35.4341 52.0575 34.6724 51.5808C33.9107 51.1041 33.3088 50.4107 32.9438 49.5897C32.5788 48.7686 32.4674 47.8571 32.6238 46.9723C32.7803 46.0875 33.1976 45.2695 33.822 44.6234C34.4465 43.9773 35.2497 43.5325 36.1287 43.3459C37.0077 43.1594 37.9224 43.2397 38.7555 43.5765C39.5885 43.9133 40.302 44.4913 40.8043 45.2363C41.3067 45.9814 41.575 46.8595 41.5749 47.758C41.5931 48.9328 41.1448 50.0669 40.3283 50.9117C39.5118 51.7566 38.3937 52.2432 37.2189 52.265ZM37.2189 45.6651C36.8045 45.6333 36.3901 45.7253 36.0279 45.9292C35.6658 46.1332 35.3724 46.44 35.1848 46.8109C34.9971 47.1817 34.9238 47.5999 34.974 48.0125C35.0241 48.425 35.1956 48.8134 35.4667 49.1285C35.7377 49.4436 36.0961 49.6711 36.4966 49.7823C36.897 49.8935 37.3215 49.8834 37.7162 49.7533C38.1109 49.6232 38.4581 49.3788 38.7139 49.0512C38.9696 48.7237 39.1224 48.3275 39.1529 47.9131C39.1529 47.8611 39.1589 47.8131 39.1589 47.7571C39.1773 47.2229 38.9836 46.7032 38.6202 46.3115C38.2567 45.9197 37.7529 45.6867 37.2189 45.6651Z" fill="#74BF44"/>
<path d="M53.348 48.967C52.1736 48.9449 51.0559 48.4581 50.2399 47.6132C49.424 46.7684 48.9763 45.6345 48.995 44.46C48.9722 43.3093 49.4057 42.1964 50.2008 41.3643C50.996 40.5322 52.0881 40.0486 53.2386 40.0191C54.3892 39.9897 55.5046 40.4167 56.3413 41.2071C57.178 41.9974 57.6679 43.0867 57.704 44.237C57.704 44.311 57.704 44.385 57.704 44.46C57.7222 45.6348 57.2739 46.7689 56.4574 47.6137C55.6409 48.4585 54.5227 48.9452 53.348 48.967ZM53.348 42.367C52.9339 42.3354 52.5198 42.4273 52.1579 42.6311C51.796 42.8348 51.5027 43.1413 51.315 43.5117C51.1272 43.8822 51.0536 44.2999 51.1033 44.7122C51.153 45.1245 51.3238 45.5128 51.5941 45.8281C51.8645 46.1433 52.2222 46.3713 52.6222 46.4832C53.0221 46.5952 53.4462 46.586 53.8409 46.4569C54.2356 46.3278 54.5832 46.0846 54.8397 45.758C55.0962 45.4314 55.2501 45.0361 55.282 44.622C55.282 44.569 55.288 44.516 55.288 44.463C55.3064 43.9292 55.1126 43.4099 54.749 43.0185C54.3855 42.6272 53.8817 42.3959 53.348 42.375" fill="#74BF44"/>
<path d="M44.2479 64.152L36.2109 58.48V50.427H38.2309V57.427L45.4129 62.498L44.2479 64.152Z" fill="#74BF44"/>
<path d="M45.729 59.2169L44.447 57.1689L52.259 52.269V47.9189H54.675V53.6059L45.729 59.2169Z" fill="#74BF44"/>
<path d="M1.26197 43.883C1.10539 43.8625 0.946261 43.8754 0.795009 43.9207C0.643757 43.9661 0.503806 44.0429 0.384337 44.1462C0.264869 44.2494 0.168584 44.3768 0.101802 44.5199C0.0350188 44.6629 -0.00075249 44.8185 -0.00316515 44.9764C-0.0055778 45.1343 0.0254228 45.2909 0.0878023 45.436C0.150182 45.5811 0.24253 45.7113 0.358788 45.8181C0.475046 45.925 0.612585 46.0061 0.76238 46.056C0.912175 46.106 1.07084 46.1237 1.22797 46.108H18.2C18.3565 46.1286 18.5156 46.1159 18.6669 46.0706C18.8182 46.0254 18.9582 45.9487 19.0777 45.8455C19.1973 45.7424 19.2937 45.6151 19.3606 45.4721C19.4275 45.3291 19.4634 45.1736 19.4659 45.0157C19.4685 44.8578 19.4376 44.7012 19.3754 44.5561C19.3132 44.411 19.2209 44.2807 19.1048 44.1737C18.9886 44.0667 18.8512 43.9855 18.7015 43.9354C18.5517 43.8853 18.3931 43.8675 18.236 43.883H1.26197Z" fill="#B9E0D7"/>
<path d="M14.86 13.294C14.7639 13.1689 14.6424 13.0655 14.5035 12.9906C14.3647 12.9157 14.2115 12.871 14.0542 12.8594C13.8968 12.8478 13.7388 12.8695 13.5904 12.9233C13.4421 12.977 13.3067 13.0615 13.1933 13.1711C13.0799 13.2808 12.9909 13.4132 12.9322 13.5597C12.8735 13.7062 12.8464 13.8634 12.8527 14.021C12.859 14.1787 12.8985 14.3332 12.9687 14.4746C13.0389 14.6159 13.1382 14.7408 13.26 14.841L13.286 14.867L25.253 26.835C25.3491 26.9602 25.4706 27.0636 25.6095 27.1385C25.7483 27.2134 25.9015 27.2581 26.0588 27.2697C26.2162 27.2813 26.3742 27.2595 26.5226 27.2058C26.6709 27.1521 26.8063 27.0676 26.9197 26.9579C27.0331 26.8483 27.1221 26.7158 27.1808 26.5694C27.2395 26.4229 27.2666 26.2657 27.2603 26.1081C27.254 25.9504 27.2145 25.7958 27.1443 25.6545C27.0741 25.5132 26.9748 25.3883 26.853 25.288L26.827 25.262L14.86 13.294Z" fill="#B9E0D7"/>
<path d="M32.8 13.6009C32.7627 13.446 32.6928 13.3009 32.5949 13.1751C32.4971 13.0494 32.3735 12.946 32.2325 12.8718C32.0915 12.7976 31.9363 12.7544 31.7772 12.745C31.6182 12.7356 31.459 12.7602 31.3102 12.8172C31.1614 12.8743 31.0265 12.9624 30.9145 13.0757C30.8025 13.189 30.716 13.3249 30.6607 13.4743C30.6054 13.6237 30.5826 13.7832 30.5939 13.9422C30.6051 14.1011 30.6502 14.2558 30.726 14.3959V14.4299L33.957 20.5609C34.0545 20.8592 34.2654 21.1071 34.5443 21.251C34.8231 21.3949 35.1474 21.4233 35.447 21.3299C35.588 21.2658 35.715 21.1746 35.8207 21.0614C35.9264 20.9481 36.0088 20.8152 36.0631 20.6702C36.1175 20.5251 36.1427 20.3707 36.1373 20.2159C36.132 20.0611 36.0962 19.9089 36.032 19.7679C36.0331 19.7566 36.0331 19.7452 36.032 19.7339L32.8 13.6009Z" fill="#74BF44"/>
<path d="M14.4899 30.71C14.356 30.625 14.2055 30.5695 14.0484 30.547C13.8913 30.5246 13.7313 30.5358 13.5789 30.5799C13.4265 30.6239 13.2852 30.6999 13.1643 30.8027C13.0435 30.9055 12.9458 31.0328 12.8779 31.1762C12.81 31.3195 12.7733 31.4757 12.7702 31.6343C12.7672 31.793 12.7979 31.9504 12.8603 32.0963C12.9227 32.2422 13.0154 32.3731 13.1322 32.4805C13.249 32.5878 13.3873 32.6691 13.5379 32.719L13.5719 32.733L20.1419 34.938C20.2759 35.023 20.4264 35.0785 20.5835 35.101C20.7405 35.1234 20.9006 35.1122 21.053 35.0681C21.2054 35.024 21.3467 34.9481 21.4676 34.8453C21.5884 34.7425 21.686 34.6152 21.754 34.4718C21.8219 34.3284 21.8586 34.1723 21.8617 34.0136C21.8647 33.855 21.834 33.6976 21.7716 33.5517C21.7092 33.4058 21.6165 33.2749 21.4997 33.1675C21.3828 33.0602 21.2445 32.9789 21.0939 32.929L21.0599 32.915L14.4899 30.71Z" fill="#74BF44"/>
<path d="M12.8029 55.6789C12.6473 55.7094 12.5 55.7726 12.3706 55.8643C12.2412 55.9559 12.1328 56.074 12.0525 56.2107C11.9722 56.3475 11.9218 56.4997 11.9047 56.6573C11.8876 56.8149 11.9042 56.9744 11.9533 57.1251C12.0025 57.2759 12.083 57.4145 12.1897 57.5317C12.2964 57.649 12.4268 57.7423 12.5723 57.8054C12.7177 57.8686 12.8749 57.9001 13.0334 57.898C13.192 57.8958 13.3482 57.86 13.4919 57.7929L13.5259 57.7789L19.8139 54.8639C19.9615 54.8383 20.1024 54.7833 20.2284 54.7022C20.3543 54.6211 20.4627 54.5155 20.5471 54.3918C20.6316 54.2681 20.6903 54.1287 20.7199 53.9818C20.7495 53.835 20.7494 53.6837 20.7194 53.5369C20.6895 53.3901 20.6305 53.2509 20.5458 53.1273C20.4611 53.0037 20.3525 52.8984 20.2264 52.8176C20.1003 52.7368 19.9592 52.682 19.8116 52.6567C19.664 52.6313 19.5128 52.6358 19.3669 52.6699C19.2824 52.687 19.2002 52.7138 19.1219 52.7499H19.0909L12.8029 55.6789Z" fill="#74BF44"/>
<path d="M77.6149 55.678C77.7701 55.7091 77.9168 55.7728 78.0456 55.8648C78.1743 55.9568 78.2821 56.075 78.3618 56.2117C78.4415 56.3483 78.4914 56.5003 78.5081 56.6577C78.5249 56.815 78.5081 56.9741 78.4588 57.1245C78.4096 57.2749 78.3291 57.4131 78.2226 57.5301C78.1161 57.6471 77.9859 57.7402 77.8408 57.8032C77.6957 57.8663 77.5389 57.8979 77.3807 57.896C77.2225 57.894 77.0665 57.8586 76.9229 57.792L76.8919 57.778L70.6039 54.86C70.4483 54.8295 70.301 54.7663 70.1716 54.6747C70.0423 54.583 69.9338 54.4649 69.8535 54.3282C69.7732 54.1915 69.7228 54.0393 69.7057 53.8816C69.6887 53.724 69.7052 53.5645 69.7543 53.4138C69.8035 53.2631 69.8841 53.1244 69.9908 53.0072C70.0975 52.8899 70.2278 52.7966 70.3733 52.7335C70.5187 52.6703 70.6759 52.6388 70.8345 52.641C70.993 52.6431 71.1493 52.6789 71.2929 52.746H71.3269L77.6149 55.678Z" fill="#74BF44"/>
<path d="M75.789 30.71C75.923 30.625 76.0735 30.5695 76.2306 30.547C76.3876 30.5246 76.5477 30.5358 76.7001 30.5799C76.8525 30.6239 76.9938 30.6999 77.1146 30.8027C77.2355 30.9055 77.3331 31.0328 77.401 31.1762C77.469 31.3195 77.5057 31.4757 77.5087 31.6343C77.5118 31.793 77.4811 31.9504 77.4187 32.0963C77.3563 32.2422 77.2636 32.3731 77.1468 32.4805C77.0299 32.5878 76.8916 32.6691 76.741 32.719L76.71 32.733L70.14 34.938C70.0061 35.0215 69.8561 35.0758 69.6997 35.0972C69.5434 35.1187 69.3843 35.1068 69.2328 35.0624C69.0814 35.018 68.9411 34.942 68.8211 34.8396C68.7011 34.7371 68.6041 34.6104 68.5365 34.4678C68.4689 34.3252 68.4323 34.1699 68.429 34.0121C68.4256 33.8543 68.4557 33.6976 68.5173 33.5523C68.5788 33.407 68.6704 33.2763 68.786 33.1689C68.9016 33.0615 69.0386 32.9797 69.188 32.929L69.219 32.915L75.789 30.71Z" fill="#74BF44"/>
<path d="M59.966 14.251C60.0491 14.1167 60.103 13.9663 60.1239 13.8097C60.1448 13.6532 60.1324 13.4939 60.0875 13.3425C60.0425 13.1911 59.966 13.0509 59.8631 12.9311C59.7601 12.8113 59.6329 12.7147 59.4899 12.6475C59.347 12.5804 59.1914 12.5442 59.0335 12.5414C58.8755 12.5387 58.7188 12.5693 58.5736 12.6314C58.4283 12.6935 58.2978 12.7856 58.1907 12.9017C58.0836 13.0178 58.0022 13.1552 57.952 13.305C57.9467 13.315 57.9421 13.3254 57.938 13.336L54.995 20.125C54.9113 20.2591 54.857 20.4094 54.8356 20.566C54.8142 20.7227 54.8263 20.882 54.871 21.0337C54.9157 21.1853 54.992 21.3258 55.0949 21.4458C55.1978 21.5658 55.325 21.6626 55.468 21.7299C55.6111 21.7972 55.7667 21.8334 55.9248 21.8361C56.0829 21.8389 56.2397 21.8081 56.385 21.7459C56.5303 21.6836 56.6608 21.5913 56.7678 21.475C56.8748 21.3586 56.956 21.2209 57.006 21.071C57.0119 21.0602 57.0166 21.0488 57.02 21.037L59.966 14.251Z" fill="#74BF44"/>
<path d="M46.108 1.27399C46.1323 1.12651 46.1269 0.975666 46.0919 0.830334C46.057 0.685003 45.9934 0.548128 45.9047 0.427777C45.8161 0.307426 45.7043 0.206032 45.5759 0.129571C45.4474 0.0531092 45.305 0.00312682 45.157 -0.0174313C45.0089 -0.0379893 44.8583 -0.0287072 44.7139 0.00986817C44.5695 0.0484435 44.4342 0.115532 44.3162 0.20718C44.1981 0.298828 44.0996 0.413181 44.0264 0.543502C43.9532 0.673823 43.9068 0.817474 43.89 0.965992C43.8789 1.05699 43.8789 1.149 43.89 1.23999C43.8872 1.25115 43.8872 1.26283 43.89 1.27399V18.214C43.8657 18.3615 43.8712 18.5123 43.9061 18.6576C43.941 18.803 44.0047 18.9399 44.0933 19.0602C44.1819 19.1806 44.2937 19.282 44.4222 19.3584C44.5506 19.4349 44.693 19.4849 44.8411 19.5054C44.9891 19.526 45.1398 19.5167 45.2842 19.4781C45.4286 19.4395 45.5638 19.3725 45.6819 19.2808C45.7999 19.1892 45.8985 19.0748 45.9717 18.9445C46.0448 18.8142 46.0912 18.6705 46.108 18.522C46.1191 18.431 46.1191 18.339 46.108 18.248V1.27399Z" fill="#B9E0D7"/>
<path d="M76.703 14.869C76.8266 14.7724 76.9286 14.6509 77.0022 14.5124C77.0758 14.3739 77.1195 14.2214 77.1304 14.0649C77.1413 13.9084 77.1192 13.7514 77.0655 13.604C77.0118 13.4566 76.9276 13.3221 76.8186 13.2093C76.7096 13.0966 76.578 13.008 76.4325 12.9493C76.287 12.8907 76.1308 12.8633 75.974 12.8689C75.8172 12.8745 75.6634 12.913 75.5225 12.982C75.3815 13.0509 75.2567 13.1487 75.156 13.269L75.13 13.292L63.165 25.262C63.0399 25.3581 62.9365 25.4796 62.8616 25.6185C62.7867 25.7573 62.7419 25.9105 62.7303 26.0678C62.7187 26.2252 62.7405 26.3832 62.7942 26.5316C62.848 26.6799 62.9324 26.8153 63.0421 26.9287C63.1518 27.0421 63.2842 27.1311 63.4307 27.1898C63.5771 27.2485 63.7343 27.2756 63.892 27.2693C64.0497 27.263 64.2042 27.2235 64.3455 27.1533C64.4868 27.0831 64.6117 26.9838 64.712 26.862L64.738 26.836L76.703 14.869Z" fill="#B9E0D7"/>
<path d="M88.7219 46.117C88.8694 46.1413 89.0202 46.1358 89.1656 46.1009C89.3109 46.066 89.4478 46.0023 89.5681 45.9137C89.6885 45.8251 89.7899 45.7133 89.8663 45.5848C89.9428 45.4564 89.9928 45.314 90.0133 45.1659C90.0339 45.0179 90.0246 44.8672 89.986 44.7228C89.9474 44.5784 89.8804 44.4432 89.7887 44.3251C89.6971 44.207 89.5827 44.1085 89.4524 44.0353C89.3221 43.9621 89.1784 43.9158 89.0299 43.899C88.9389 43.8879 88.8469 43.8879 88.7559 43.899H71.7829C71.6255 43.8766 71.4652 43.888 71.3126 43.9323C71.1599 43.9767 71.0185 44.0531 70.8976 44.1564C70.7768 44.2596 70.6793 44.3874 70.6117 44.5313C70.544 44.6751 70.5078 44.8317 70.5054 44.9907C70.5029 45.1496 70.5344 45.3073 70.5976 45.4531C70.6608 45.599 70.7543 45.7297 70.8719 45.8366C70.9896 45.9435 71.1286 46.0242 71.2798 46.0732C71.431 46.1222 71.5909 46.1385 71.7489 46.121L88.7219 46.117Z" fill="#B9E0D7"/>
</g>
</g>
<defs>
<clipPath id="clip0_64_428">
<rect width="90" height="87.198" fill="white"/>
</clipPath>
</defs>
</svg>
