<svg width="549" height="400" viewBox="0 0 549 400" fill="none" xmlns="http://www.w3.org/2000/svg">
<g id="africa 1" clip-path="url(#clip0_71_1115)">
<path id="Burundi" d="M267.255 115.52L266.443 110.026L257.649 109.11L252.508 117.148L242.497 116.029L246.556 122.439L246.691 124.881L252.508 138.313V138.923L254.132 138.72L260.22 133.632L266.849 126.306L270.908 123.355L270.772 118.776L267.255 115.52Z" fill="#F2F2F2" stroke="black" stroke-linejoin="round"/>
<path id="Dem. Rep. Congo" d="M199.644 4.51808L187.427 3.10559L181.451 4.31628L179.061 7.64574L173.882 8.1502L167.376 5.12344L149.449 12.085L142.012 10.6725L139.888 11.7823L135.107 20.2573L123.023 17.5332L111.072 16.1207L100.714 10.9752L87.3021 6.23326L78.6707 10.6725L72.4295 17.8359L71.1015 27.5215L70.172 35.9965L65.3915 43.4625L62.2045 52.1392L60.2126 64.549L61.1422 72.4186L58.4863 77.2614L58.088 82.4069L56.2288 86.8461L45.4727 93.6059L38.0364 100.769L30.9984 114.289L31.3968 125.791L27.2803 130.23L17.7192 137.091L8.15825 145.868L2.18262 143.346L1.12027 139.411L-7.64396 139.31L-13.2212 144.657L-17.4706 143.245L-23.4462 146.171L-26.102 149.702L-26.6332 155.756L-30.7498 157.269L-28.6251 161.607L-21.8527 159.69L-17.205 159.993L-11.495 158.278L36.3101 158.48L40.1611 168.872L44.8088 177.246L48.3941 181.786L54.5026 189.05L65.2587 187.94L70.5703 186.023L79.4674 187.94L81.9905 184.51L86.107 176.338L96.1992 175.833L97.1287 173.412L105.362 173.311L103.901 178.355L123.554 178.255L123.687 187.032L126.874 192.38L124.351 200.854L125.413 209.43L130.592 214.576L129.397 231.223L133.381 229.911L140.419 230.214L150.511 228.196L157.815 229.003L163.392 229.306L164.189 233.644L171.758 233.342L181.983 234.653L187.162 240.909L200.042 242.926L210.002 238.487L213.454 245.852L225.671 247.769L231.381 253.722L237.755 261.39L250.105 261.491L249.308 246.458L244.793 248.98L233.639 243.532L229.389 241.11L231.912 227.086L235.232 210.54L231.78 204.386L236.56 195.507L240.942 193.792L262.72 191.471L265.509 192.077L266.305 189.756L261.79 186.023L259.799 178.355L250.105 170.688L244.66 160.699L247.715 154.848L243.465 146.978L246.652 124.681L246.785 124.883L246.652 122.461L242.669 116.105L244.262 108.437L246.519 107.428L247.183 99.0541L251.831 95.2203L251.964 84.6266L255.815 79.2792L256.612 68.0802L260.064 61.6231L266.173 54.3589L272.414 50.6259L277.593 45.6821L271.086 43.7652L271.883 27.5215L257.408 18.2394L253.557 12.2868L244.528 15.2127L236.958 14.3046L232.709 16.6251L225.406 14.91L215.446 3.40826L210.135 4.92164L199.644 4.51808Z" fill="#F2F2F2" stroke="black" stroke-linejoin="round"/>
<path id="Kenya" d="M450.565 21.9046H439.398L432.884 17.1807L418.128 23.0102L413.475 28.8396L402.574 27.734L398.985 26.1259L395.13 26.5279L390.078 26.3269L369.207 14.5675H357.907L352.323 9.94422L352.19 2.20514L343.682 -0.207031L332.914 8.93915L323.077 17.2812L330.92 26.93L332.914 33.9655L340.226 49.8456L334.377 59.9969L326.533 69.2436L321.88 74.872V75.5755L325.736 80.8019L324.672 91.1542L383.298 119.497L384.229 127.538L407.227 141.408L413.874 136.785L417.198 127.538L422.515 122.01L425.041 112.16L431.156 111.155L435.277 105.326L446.71 99.7978L437.138 88.34L436.607 37.6842L450.565 21.9046Z" fill="#F2F2F2" stroke="black" stroke-linejoin="round"/>
<path id="Madagascar" d="M543.958 265.135L540.64 255.976L536.66 250.038L531.484 244.099L525.779 250.34L524.85 258.694L515.428 268.356L508.661 266.645L510.386 272.684L505.078 279.629L491.278 288.184L481.591 296.136L474.426 296.337L468.322 298.853L459.166 301.671L451.204 302.275L448.285 311.032L442.048 318.883L442.314 331.665L444.57 340.422L447.754 347.065L445.498 355.922L437.006 366.49L436.608 371.12L429.044 373.536L425.329 383.601L425.86 393.565L430.371 404.637L430.239 417.017L433.689 424.364L445.764 429.396L454.389 432.919L468.853 427.082L481.989 423.76L491.013 407.555L499.107 388.231L511.448 361.86L521.134 342.636L528.963 326.431L531.086 314.655L535.731 311.434L537.721 305.496L535.465 295.23L538.915 291.103L543.56 299.256L546.744 295.129L549 288.486L545.285 281.944L543.958 265.135Z" fill="#F2F2F2" stroke="black" stroke-linejoin="round"/>
<path id="Mozambique" d="M425.175 226.34L422.916 220.083L409.63 228.258L391.826 233.607L382.127 233.405L376.148 237.644L364.987 237.946L360.602 239.763L341.47 235.827L335.225 236.331L330.841 249.552L332.701 265.498H333.631L339.211 269.939L345.323 280.031L345.722 297.996L338.547 301.024L333.1 310.712L323.135 302.033L322.47 292.243L326.323 285.683L325.659 280.132L319.414 276.6L315.03 277.811L305.995 271.15L256.702 282.655L257.765 292.647L258.562 297.794L271.849 297.491L279.156 300.519L282.478 303.95L290.051 304.96L298.156 309.4L297.093 327.062L293.373 336.751L292.044 347.247L294.303 351.384L292.044 359.559L289.52 360.871L284.737 370.863L266.933 386.708L273.177 406.388L276.499 416.379L272.513 431.922L273.443 436.968L275.17 443.225L275.968 449.381L287.925 449.482L289.918 442.115L286.065 441.207L285.268 435.353L292.576 430.105L312.24 422.536L325.659 417.893L332.701 412.847L335.491 407.094L331.904 404.672L335.092 398.213L336.554 384.488L333.631 385.194L333.764 381.056L331.239 372.881L324.33 362.284L326.456 352.293L333.232 349.063L345.057 339.173L351.302 336.65L370.435 321.612L389.036 314.85L404.049 309.501L414.811 300.923L421.72 291.234L427.168 281.243L424.776 274.38L425.308 252.58L423.979 240.268L425.175 226.34Z" fill="#F2F2F2" stroke="black" stroke-linejoin="round"/>
<path id="Malawi" d="M327.905 272.115L328.301 266.897L324.739 262.782L325.267 256.76L320.913 246.524L325.794 238.796L325.53 222.036L320.121 213.104L320.649 211.599L317.614 207.785L301.913 205.176L309.302 211.398L312.996 223.14L310.094 226.954L306.531 238.194L309.17 249.735L303.892 254.553L298.483 267.398L306.663 271.011L315.635 277.635L319.989 276.431L326.19 279.943L326.85 285.463L323.024 291.986L323.683 301.721L333.579 310.352L338.988 300.718L346.113 297.707L345.717 279.843L339.648 269.807L334.107 265.391H333.183L333.315 267.298L336.35 267.8L339.252 275.226L338.724 276.933L333.315 271.614L330.412 275.026L327.905 272.115Z" fill="#F2F2F2" stroke="black" stroke-linejoin="round"/>
<path id="Rwanda" d="M265.362 92.5466L255.525 96.8718L251.67 95.4636L247.017 99.2859L246.352 107.635L244.092 108.64L242.497 116.285L252.334 117.391L257.386 109.445L266.027 110.35L270.68 108.54L271.743 100.392L265.362 92.5466Z" fill="#F2F2F2" stroke="black" stroke-linejoin="round"/>
<path id="Tanzania" d="M271.326 90.8903L265.621 92.6002L271.99 100.446L270.928 108.593L266.284 110.404L267.08 115.836L270.53 119.054L270.663 123.581L266.682 126.498L260.181 133.74L254.21 138.769L252.617 138.97L251.688 144.905L254.74 146.917L254.077 152.851L257.129 158.383L253.281 163.714L266.152 173.17L267.213 181.719L275.042 196.003L275.838 196.405L282.207 198.718L292.424 201.132L301.447 205.256L317.237 207.872L320.289 211.694L321.35 208.978L329.577 216.421L330.373 231.006L335.548 236.338L335.415 236.539L341.652 236.036L360.759 239.959L365.137 238.148L376.283 237.846L382.254 233.622L391.941 233.823L409.721 228.492L422.99 220.344L417.151 217.327L410.915 203.647L405.608 194.896L406.935 188.257L406.138 184.033L410.782 175.584L410.384 171.963L400.167 166.933L399.371 159.087L407.2 141.887L384.245 128.006L383.316 119.96L324.8 91.5944L316.839 97.7301L311.398 104.067L317.768 108.795L308.479 112.214L306.489 110.605L297.068 111.51L289.77 114.629L285.391 109.197L288.443 99.4401L289.107 91.0914L271.326 90.8903Z" fill="#F2F2F2" stroke="black" stroke-linejoin="round"/>
<path id="Uganda" d="M323.107 17.1842L313.266 23.6413L301.828 23.5404L288.794 26.8699L278.421 23.7422L271.771 27.5761L270.973 43.8198L277.49 45.7367L272.303 50.6805L266.052 54.4134L259.934 61.6777L256.476 68.1348L255.678 79.3338L251.822 84.6812L251.688 95.2749L255.545 96.6873L265.387 92.349L271.106 90.6338L288.927 90.8356L287.996 85.4883L295.577 77.316L305.818 75.2981L312.734 71.9687L321.112 74.6928L321.91 75.7017V74.9955L326.565 69.3455L334.412 60.0634L340.264 49.8733L332.949 33.9323L330.954 26.8699L323.107 17.1842Z" fill="#F2F2F2" stroke="black" stroke-linejoin="round"/>
<path id="Zambia" d="M270.152 195.843L264.702 194.733L265.633 191.703L262.841 191.097L241.042 193.42L236.655 195.137L231.87 204.023L235.326 210.183L232.003 226.743L229.477 240.779L233.731 243.203L244.897 248.656L249.416 246.131L250.214 261.177L237.851 261.076L231.471 253.402L225.755 247.444L213.526 245.526L210.07 238.154L200.101 242.597L187.207 240.577L182.023 234.317L171.787 233.004L164.211 233.307L163.413 228.965L157.83 228.662L159.425 233.004L157.431 239.77L160.09 246.333L157.431 251.584L158.761 256.33L125.131 256.229L123.004 300.66L133.372 312.071L143.474 320.755L156.634 317.625L167.002 318.433L173.25 321.563V322.775L176.174 323.785L193.986 325.3L199.037 326.915L204.487 326.612L213.792 317.524L228.281 306.012L234.13 305.003L236.389 300.156L245.694 294.602L258.056 292.683L256.993 282.686L306.308 271.174L298.067 267.539L303.517 254.614L308.834 249.767L306.175 238.154L309.764 226.844L312.689 223.007L308.967 211.192L301.523 204.932L292.484 200.792L282.249 198.368L275.868 196.045L275.071 195.642L276.267 197.964L273.609 198.772L270.152 195.843Z" fill="#F2F2F2" stroke="black" stroke-linejoin="round"/>
<rect id="DarPin" x="396.393" y="173.381" width="9.5979" height="9.59233" rx="4.79616" fill="#A0010E"/>
<rect id="kigomaPin" x="257.224" y="151.319" width="9.5979" height="9.59233" rx="4.79616" fill="#A0010E"/>
<rect id="kalemiePin" x="236.108" y="165.707" width="9.5979" height="9.59233" rx="4.79616" fill="#A0010E"/>
<rect id="lubumbashiPin" x="211.154" y="229.976" width="9.5979" height="9.59233" rx="4.79616" fill="#A0010E"/>
<path id="KigomaPath" d="M266.136 157.098C265.885 157.212 265.772 157.508 265.886 157.759L267.735 161.862C267.848 162.114 268.144 162.226 268.396 162.113C268.648 161.999 268.76 161.703 268.646 161.451L267.003 157.804L270.65 156.161C270.902 156.048 271.014 155.752 270.9 155.5C270.787 155.248 270.491 155.136 270.239 155.249L266.136 157.098ZM266.165 158.022C266.472 158.138 266.781 158.254 267.093 158.369L267.44 157.431C267.131 157.317 266.824 157.202 266.519 157.086L266.165 158.022ZM268.984 159.053C269.609 159.274 270.24 159.493 270.879 159.709L271.2 158.762C270.565 158.547 269.938 158.33 269.318 158.111L268.984 159.053ZM272.79 160.344C273.419 160.549 274.055 160.752 274.697 160.953L274.995 159.998C274.357 159.799 273.725 159.597 273.099 159.393L272.79 160.344ZM276.622 161.544C277.256 161.735 277.896 161.924 278.54 162.111L278.819 161.151C278.178 160.965 277.541 160.776 276.91 160.586L276.622 161.544ZM280.475 162.664C281.113 162.843 281.757 163.02 282.405 163.196L282.667 162.231C282.021 162.056 281.381 161.879 280.745 161.701L280.475 162.664ZM284.345 163.714C284.988 163.883 285.635 164.05 286.286 164.215L286.533 163.246C285.884 163.081 285.24 162.915 284.599 162.747L284.345 163.714ZM288.232 164.702C288.879 164.861 289.529 165.019 290.183 165.175L290.415 164.203C289.764 164.047 289.116 163.89 288.471 163.731L288.232 164.702ZM292.132 165.634C292.782 165.785 293.435 165.934 294.091 166.082L294.311 165.107C293.657 164.959 293.006 164.81 292.358 164.66L292.132 165.634ZM296.043 166.516C296.696 166.659 297.352 166.8 298.01 166.941L298.219 165.963C297.562 165.823 296.909 165.682 296.257 165.539L296.043 166.516ZM299.965 167.351C300.619 167.487 301.275 167.621 301.933 167.754L302.131 166.774C301.475 166.641 300.82 166.507 300.168 166.372L299.965 167.351ZM303.896 168.145C304.551 168.273 305.207 168.401 305.865 168.526L306.053 167.544C305.396 167.419 304.742 167.292 304.089 167.163L303.896 168.145ZM307.835 168.899C308.49 169.021 309.147 169.142 309.804 169.262L309.983 168.278C309.327 168.158 308.672 168.038 308.018 167.916L307.835 168.899ZM311.78 169.616C312.436 169.733 313.093 169.848 313.751 169.962L313.922 168.976C313.265 168.863 312.609 168.748 311.954 168.632L311.78 169.616ZM315.728 170.3C316.386 170.411 317.045 170.52 317.704 170.629L317.866 169.642C317.209 169.534 316.551 169.424 315.895 169.314L315.728 170.3ZM319.682 170.951C320.341 171.057 321.001 171.162 321.661 171.265L321.816 170.277C321.157 170.174 320.499 170.069 319.841 169.964L319.682 170.951ZM323.641 171.572C324.301 171.674 324.962 171.774 325.622 171.872L325.77 170.883C325.111 170.785 324.452 170.685 323.793 170.584L323.641 171.572ZM327.605 172.165C328.266 172.262 328.926 172.357 329.586 172.452L329.728 171.462C329.069 171.368 328.409 171.272 327.749 171.176L327.605 172.165ZM331.572 172.731C332.234 172.824 332.895 172.915 333.556 173.004L333.691 172.014C333.031 171.924 332.371 171.833 331.71 171.741L331.572 172.731ZM335.543 173.272C336.206 173.36 336.868 173.447 337.529 173.532L337.658 172.541C336.998 172.455 336.336 172.368 335.674 172.28L335.543 173.272ZM339.515 173.787C340.179 173.871 340.843 173.954 341.506 174.036L341.628 173.043C340.967 172.962 340.304 172.879 339.64 172.795L339.515 173.787ZM343.488 174.278C344.155 174.358 344.82 174.438 345.484 174.516L345.601 173.523C344.938 173.445 344.274 173.365 343.608 173.285L343.488 174.278ZM347.47 174.747C348.137 174.823 348.802 174.899 349.464 174.973L349.576 173.979C348.914 173.905 348.25 173.83 347.584 173.753L347.47 174.747ZM351.454 175.193C352.12 175.266 352.784 175.337 353.446 175.408L353.552 174.413C352.891 174.343 352.228 174.272 351.562 174.199L351.454 175.193ZM355.44 175.617C356.106 175.686 356.769 175.754 357.429 175.821L357.53 174.826C356.87 174.759 356.208 174.692 355.543 174.623L355.44 175.617ZM359.427 176.02C360.093 176.086 360.755 176.15 361.414 176.213L361.509 175.217C360.851 175.154 360.19 175.09 359.525 175.025L359.427 176.02ZM363.417 176.402C364.082 176.463 364.743 176.524 365.401 176.583L365.491 175.587C364.834 175.528 364.174 175.468 363.509 175.406L363.417 176.402ZM367.408 176.762C368.073 176.82 368.734 176.877 369.39 176.933L369.475 175.936C368.82 175.881 368.16 175.824 367.495 175.766L367.408 176.762ZM371.401 177.101C372.067 177.155 372.729 177.209 373.384 177.261L373.463 176.264C372.809 176.212 372.148 176.159 371.483 176.104L371.401 177.101ZM375.395 177.418C376.064 177.469 376.726 177.519 377.382 177.567L377.455 176.57C376.801 176.522 376.14 176.472 375.472 176.421L375.395 177.418ZM379.391 177.713C380.063 177.76 380.728 177.807 381.384 177.851L381.452 176.853C380.796 176.809 380.133 176.763 379.461 176.715L379.391 177.713ZM383.385 177.984C384.063 178.028 384.731 178.07 385.389 178.111L385.451 177.113C384.794 177.072 384.126 177.03 383.449 176.986L383.385 177.984ZM387.372 178.23C388.058 178.27 388.731 178.308 389.392 178.344L389.446 177.346C388.787 177.31 388.115 177.272 387.431 177.232L387.372 178.23ZM391.387 178.45C392.066 178.484 392.73 178.517 393.378 178.547L393.425 177.548C392.778 177.518 392.116 177.485 391.438 177.451L391.387 178.45ZM395.397 178.637C395.727 178.651 396.053 178.664 396.374 178.677L396.413 177.678C396.093 177.665 395.769 177.652 395.439 177.638L395.397 178.637Z" fill="black"/>
<path id="LubumbashiPath" d="M219.8 232.69C219.709 232.951 219.847 233.236 220.108 233.326L224.359 234.802C224.62 234.893 224.905 234.755 224.995 234.494C225.086 234.233 224.948 233.948 224.687 233.857L220.908 232.545L222.22 228.767C222.311 228.506 222.173 228.221 221.912 228.13C221.651 228.04 221.366 228.178 221.276 228.439L219.8 232.69ZM220.49 233.304C220.77 233.168 221.055 233.031 221.347 232.893L220.92 231.989C220.625 232.129 220.336 232.267 220.054 232.404L220.49 233.304ZM223.172 232.05C223.754 231.786 224.355 231.519 224.975 231.248L224.575 230.332C223.951 230.604 223.345 230.874 222.76 231.139L223.172 232.05ZM226.834 230.448C227.426 230.198 228.033 229.944 228.655 229.687L228.273 228.762C227.648 229.02 227.038 229.276 226.443 229.528L226.834 230.448ZM230.517 228.926C231.122 228.682 231.739 228.435 232.368 228.186L232.001 227.256C231.369 227.506 230.75 227.754 230.143 227.999L230.517 228.926ZM234.223 227.459C234.843 227.218 235.473 226.976 236.113 226.731L235.756 225.797C235.114 226.042 234.482 226.286 233.861 226.527L234.223 227.459ZM237.955 226.032C238.578 225.797 239.209 225.561 239.849 225.323L239.501 224.386C238.86 224.624 238.227 224.861 237.602 225.096L237.955 226.032ZM241.714 224.635C242.331 224.409 242.955 224.181 243.586 223.952L243.246 223.012C242.613 223.241 241.988 223.469 241.37 223.696L241.714 224.635ZM245.5 223.263C246.112 223.043 246.731 222.822 247.355 222.601L247.02 221.659C246.395 221.88 245.776 222.101 245.162 222.321L245.5 223.263ZM249.242 221.934C249.874 221.712 250.51 221.49 251.152 221.266L250.823 220.322C250.18 220.546 249.543 220.769 248.911 220.991L249.242 221.934ZM253.019 220.619C253.646 220.402 254.278 220.185 254.915 219.967L254.591 219.021C253.953 219.239 253.321 219.457 252.693 219.674L253.019 220.619ZM256.826 219.315C257.447 219.104 258.072 218.893 258.701 218.68L258.382 217.733C257.752 217.945 257.126 218.157 256.504 218.368L256.826 219.315ZM260.6 218.043C261.235 217.83 261.874 217.617 262.517 217.403L262.201 216.454C261.558 216.668 260.918 216.881 260.282 217.094L260.6 218.043ZM264.397 216.78C265.027 216.572 265.661 216.363 266.297 216.154L265.985 215.204C265.348 215.413 264.714 215.622 264.084 215.83L264.397 216.78ZM268.215 215.527C268.843 215.322 269.473 215.117 270.106 214.912L269.797 213.961C269.164 214.166 268.533 214.371 267.905 214.576L268.215 215.527ZM272.005 214.298C272.641 214.093 273.28 213.888 273.92 213.683L273.615 212.731C272.974 212.936 272.335 213.141 271.699 213.346L272.005 214.298ZM275.824 213.074C276.456 212.873 277.089 212.672 277.725 212.47L277.423 211.517C276.787 211.719 276.153 211.92 275.521 212.122L275.824 213.074ZM279.637 211.866C280.274 211.665 280.912 211.464 281.552 211.263L281.253 210.309C280.612 210.51 279.973 210.711 279.336 210.912L279.637 211.866ZM283.454 210.668C284.089 210.47 284.726 210.272 285.364 210.073L285.068 209.118C284.429 209.317 283.792 209.515 283.156 209.714L283.454 210.668ZM287.284 209.479C287.918 209.283 288.554 209.087 289.191 208.891L288.897 207.935C288.26 208.131 287.623 208.327 286.988 208.523L287.284 209.479ZM291.101 208.304C291.739 208.109 292.378 207.914 293.018 207.719L292.727 206.762C292.087 206.957 291.447 207.153 290.809 207.348L291.101 208.304ZM294.935 207.136C295.572 206.943 296.209 206.75 296.847 206.557L296.558 205.6C295.919 205.793 295.282 205.986 294.645 206.179L294.935 207.136ZM298.763 205.98C299.403 205.787 300.043 205.595 300.683 205.404L300.396 204.446C299.756 204.638 299.115 204.83 298.475 205.022L298.763 205.98ZM302.599 204.832C303.238 204.641 303.877 204.451 304.517 204.261L304.232 203.303C303.592 203.493 302.953 203.683 302.313 203.873L302.599 204.832ZM306.436 203.693C307.076 203.504 307.716 203.316 308.356 203.127L308.074 202.168C307.433 202.356 306.793 202.545 306.152 202.734L306.436 203.693ZM310.277 202.564C310.917 202.376 311.557 202.189 312.197 202.002L311.917 201.042C311.277 201.229 310.636 201.416 309.996 201.604L310.277 202.564ZM314.116 201.444C314.758 201.258 315.4 201.072 316.042 200.886L315.764 199.926C315.122 200.111 314.48 200.297 313.838 200.484L314.116 201.444ZM317.965 200.332C318.606 200.147 319.246 199.963 319.886 199.78L319.611 198.819C318.971 199.002 318.33 199.186 317.689 199.371L317.965 200.332ZM321.81 199.23C322.454 199.046 323.097 198.863 323.739 198.681L323.466 197.719C322.823 197.902 322.18 198.085 321.536 198.268L321.81 199.23ZM325.663 198.136C326.303 197.955 326.943 197.775 327.581 197.595L327.31 196.632C326.671 196.812 326.032 196.993 325.391 197.174L325.663 198.136ZM329.517 197.052C330.161 196.871 330.804 196.691 331.446 196.513L331.177 195.549C330.535 195.728 329.892 195.908 329.247 196.089L329.517 197.052ZM333.367 195.978C334.012 195.799 334.656 195.621 335.298 195.444L335.032 194.48C334.389 194.657 333.745 194.836 333.099 195.015L333.367 195.978ZM337.234 194.911C337.877 194.734 338.519 194.558 339.159 194.383L338.895 193.418C338.255 193.593 337.613 193.769 336.969 193.946L337.234 194.911ZM341.082 193.859C341.732 193.682 342.38 193.506 343.026 193.331L342.765 192.366C342.119 192.541 341.47 192.717 340.82 192.894L341.082 193.859ZM344.957 192.811C345.598 192.638 346.236 192.467 346.873 192.297L346.614 191.33C345.977 191.501 345.338 191.672 344.697 191.845L344.957 192.811ZM348.824 191.776C349.472 191.604 350.117 191.432 350.76 191.263L350.504 190.296C349.861 190.466 349.215 190.637 348.567 190.81L348.824 191.776ZM352.678 190.757C353.331 190.585 353.981 190.415 354.627 190.246L354.375 189.279C353.728 189.448 353.078 189.618 352.424 189.79L352.678 190.757ZM356.569 189.741C357.213 189.574 357.853 189.409 358.49 189.245L358.24 188.276C357.603 188.44 356.963 188.606 356.318 188.773L356.569 189.741ZM360.439 188.745C361.092 188.578 361.741 188.413 362.386 188.249L362.14 187.28C361.495 187.443 360.845 187.609 360.191 187.776L360.439 188.745ZM364.305 187.764C364.962 187.599 365.614 187.436 366.261 187.275L366.019 186.304C365.372 186.466 364.719 186.629 364.061 186.795L364.305 187.764ZM368.209 186.791C368.853 186.632 369.491 186.475 370.123 186.321L369.886 185.349C369.253 185.504 368.614 185.661 367.969 185.82L368.209 186.791ZM372.095 185.841C372.749 185.683 373.397 185.527 374.037 185.374L373.805 184.401C373.163 184.555 372.515 184.711 371.86 184.869L372.095 185.841ZM375.964 184.916C376.631 184.759 377.289 184.604 377.94 184.453L377.713 183.479C377.062 183.63 376.402 183.785 375.734 183.943L375.964 184.916ZM379.865 184.008C380.53 183.855 381.187 183.706 381.833 183.561L381.613 182.585C380.966 182.731 380.308 182.88 379.641 183.033L379.865 184.008ZM383.784 183.125C384.442 182.98 385.09 182.838 385.726 182.701L385.514 181.724C384.877 181.861 384.228 182.003 383.568 182.149L383.784 183.125ZM387.7 182.28C388.357 182.142 389 182.009 389.629 181.88L389.429 180.901C388.798 181.029 388.153 181.163 387.494 181.301L387.7 182.28ZM391.619 181.482C392.284 181.351 392.93 181.228 393.556 181.11L393.372 180.128C392.743 180.245 392.094 180.37 391.427 180.501L391.619 181.482ZM395.54 180.75C395.858 180.694 396.171 180.641 396.477 180.589L396.31 179.603C396.002 179.655 395.687 179.709 395.367 179.765L395.54 180.75Z" fill="black"/>
</g>
<defs>
<clipPath id="clip0_71_1115">
<rect width="549" height="400" fill="white"/>
</clipPath>
</defs>
</svg>
