<svg width="100" height="82" viewBox="0 0 100 82" fill="none" xmlns="http://www.w3.org/2000/svg">
<mask id="mask0_64_553" style="mask-type:luminance" maskUnits="userSpaceOnUse" x="0" y="0" width="100" height="82">
<path d="M99.4024 0H0.597412V81.496H99.4024V0Z" fill="white"/>
</mask>
<g mask="url(#mask0_64_553)">
<path d="M34.6974 35.045C34.0141 35.1709 33.3136 35.1709 32.6304 35.045V43.406H34.6974V35.045Z" fill="#2D2D2E"/>
<path d="M57.4295 5.185V4.151H51.2295V8.283H53.2915V6.218H55.3395C55.276 9.73667 54.4373 13.198 52.883 16.3555C51.3288 19.5129 49.0973 22.2887 46.3475 24.485C45.5669 25.9918 44.6448 27.4209 43.5935 28.753C47.8186 26.4465 51.3376 23.0354 53.7744 18.8841C56.2112 14.7328 57.4742 9.99742 57.4285 5.184" fill="#2D2D2E"/>
<path d="M11.9815 6.20701H14.0275V8.27201H16.0925V4.14001H9.89249V5.18501C9.84343 9.9991 11.1051 14.7358 13.5422 18.8877C15.9794 23.0396 19.5002 26.4502 23.7275 28.754C22.6762 27.4219 21.7541 25.9928 20.9735 24.486C18.2247 22.2861 15.9939 19.5082 14.4393 16.3493C12.8848 13.1904 12.0446 9.72807 11.9785 6.20802" fill="#2D2D2E"/>
<path d="M34.6974 34.106V35.045C37.5454 34.567 40.8604 32.211 43.5894 28.745C43.4704 28.809 43.3974 28.845 43.3894 28.845L42.5224 26.967C43.8869 26.2803 45.1694 25.4417 46.3454 24.467C48.147 21.0646 49.1113 17.2817 49.1584 13.432C49.1584 8.778 48.9084 3.454 47.0914 0H20.2254C18.4084 3.454 18.1584 8.778 18.1584 13.432C18.2054 17.2812 19.1694 21.0638 20.9704 24.466C22.1465 25.4407 23.429 26.2793 24.7934 26.966L23.9234 28.844L23.7234 28.744C26.4604 32.212 29.7754 34.579 32.6154 35.044V34.105L34.6974 34.106ZM36.7644 4.14H38.8424V6.208H36.7784L36.7644 4.14ZM32.6294 4.14H34.6964V6.208H32.6294V4.14ZM30.5584 6.208H28.4974V4.14H30.5584V6.208Z" fill="#A7A6A4"/>
<path d="M34.6974 35.045V34.106H32.6304V35.045C33.3136 35.1708 34.0141 35.1708 34.6974 35.045Z" fill="#A7A6A4"/>
<path d="M43.3955 28.846C43.3955 28.846 43.4785 28.807 43.5955 28.746C44.6446 27.4126 45.5644 25.9825 46.3425 24.475C45.1664 25.4497 43.884 26.2883 42.5195 26.975L43.3955 28.846Z" fill="#A7A6A4"/>
<path d="M24.7993 26.967C23.4349 26.2804 22.1524 25.4417 20.9763 24.467C21.7569 25.9738 22.679 27.4029 23.7303 28.735L23.9303 28.835L24.7993 26.967Z" fill="#A7A6A4"/>
<path d="M39.8623 43.406H27.4623L23.3303 47.541H43.9953L39.8623 43.406Z" fill="#74BF44"/>
<path d="M23.3294 57.872V51.672H43.0835L44.2394 49.605H21.2625V59.939H38.4624L39.6184 57.872H23.3294Z" fill="#E7E5E3"/>
<path d="M36.1485 64.071L38.4605 59.939H15.0635V64.071H23.3305V66.138H25.3975V64.071H36.1485Z" fill="#595857"/>
<path d="M25.3975 64.071V66.138H34.9925L36.1475 64.071H25.3975Z" fill="#2D2D2E"/>
<path d="M15.0634 64.071H0.597412V66.138H15.0634V64.071Z" fill="#2D2D2E"/>
<path d="M23.3305 64.071H15.0635V66.138H23.3305V64.071Z" fill="#2D2D2E"/>
<path d="M21.2575 49.605H44.2385L45.3945 47.54H19.1975V59.94H21.2575V49.605Z" fill="#2D2D2E"/>
<path d="M34.6974 4.14001H32.6304V6.20701H34.6974V4.14001Z" fill="#2D2D2E"/>
<path d="M30.5624 4.14001H28.4954V6.20701H30.5624V4.14001Z" fill="#2D2D2E"/>
<path d="M38.8295 4.14001H36.7625V6.20701H38.8295V4.14001Z" fill="#2D2D2E"/>
<path d="M23.3293 57.871H39.6193L43.0873 51.671H23.3293V57.871Z" fill="#B9E0D7"/>
<path d="M97.2645 73.9629L72.1475 30.4709C71.7071 29.7069 71.0731 29.0723 70.3095 28.6311C69.5459 28.1898 68.6795 27.9575 67.7975 27.9575C66.9156 27.9575 66.0492 28.1898 65.2856 28.6311C64.5219 29.0723 63.888 29.7069 63.4475 30.4709L38.3305 73.9629C37.8903 74.7266 37.6588 75.5927 37.6592 76.4741C37.6596 77.3556 37.8918 78.2214 38.3327 78.9847C38.7736 79.748 39.4075 80.3819 40.1709 80.8227C40.9342 81.2635 41.8001 81.4957 42.6815 81.4959H92.9085C93.79 81.4957 94.6559 81.2635 95.4192 80.8227C96.1825 80.3819 96.8165 79.748 97.2573 78.9847C97.6982 78.2214 97.9305 77.3556 97.9309 76.4741C97.9313 75.5927 97.6997 74.7266 97.2595 73.9629M67.8055 76.9079C67.0791 76.9079 66.3689 76.6925 65.7649 76.2889C65.1609 75.8853 64.6901 75.3117 64.4121 74.6405C64.1341 73.9694 64.0614 73.2309 64.2031 72.5184C64.3448 71.8059 64.6947 71.1514 65.2083 70.6377C65.722 70.1241 66.3765 69.7742 67.089 69.6325C67.8015 69.4908 68.54 69.5635 69.2111 69.8415C69.8823 70.1195 70.4559 70.5903 70.8595 71.1943C71.2631 71.7984 71.4785 72.5085 71.4785 73.2349C71.4785 74.2091 71.0916 75.1433 70.4027 75.8322C69.7139 76.521 68.7797 76.9079 67.8055 76.9079ZM70.1055 66.8079H65.5175L64.6005 42.4809H71.4865L70.1055 66.8079Z" fill="#2D2D2E"/>
<path d="M67.7994 28.265C67.9306 28.2625 68.0599 28.2958 68.1736 28.3614C68.2872 28.4269 68.3809 28.5222 68.4444 28.637L96.9924 78.098C97.0556 78.2111 97.0882 78.3388 97.0871 78.4683C97.086 78.5979 97.0512 78.725 96.9862 78.837C96.9211 78.9491 96.828 79.0423 96.716 79.1075C96.604 79.1727 96.477 79.2077 96.3474 79.209H39.2474C39.118 79.2074 38.9911 79.1723 38.8793 79.107C38.7675 79.0417 38.6745 78.9485 38.6095 78.8366C38.5445 78.7246 38.5097 78.5977 38.5084 78.4682C38.5072 78.3387 38.5396 78.2112 38.6024 78.098L67.1554 28.637C67.219 28.5222 67.3126 28.4269 67.4263 28.3614C67.5399 28.2958 67.6693 28.2625 67.8004 28.265M67.8004 25.965C67.2662 25.9628 66.7409 26.1023 66.2782 26.3693C65.8155 26.6364 65.4319 27.0213 65.1664 27.485L36.6204 76.936C36.3527 77.3978 36.2115 77.9221 36.2109 78.4559C36.2104 78.9898 36.3506 79.5143 36.6174 79.9767C36.8842 80.4391 37.2681 80.823 37.7306 81.0897C38.193 81.3565 38.7176 81.4966 39.2514 81.496H96.3614C96.8953 81.4966 97.4198 81.3565 97.8823 81.0897C98.3447 80.823 98.7287 80.4391 98.9955 79.9767C99.2622 79.5143 99.4025 78.9898 99.4019 78.4559C99.4014 77.9221 99.2601 77.3978 98.9924 76.936L70.4454 27.476C70.18 27.0123 69.7964 26.6274 69.3336 26.3603C68.8709 26.0933 68.3457 25.9538 67.8114 25.956L67.8004 25.965Z" fill="#74BF44"/>
</g>
</svg>
